<?xml version="1.0" encoding="UTF-8" standalone="no"?>
<!-- Created with Inkscape (http://www.inkscape.org/) -->

<svg
   width="172.74101mm"
   height="62.923702mm"
   viewBox="0 0 172.74101 62.923704"
   version="1.1"
   id="svg5"
   inkscape:version="1.1 (c68e22c387, 2021-05-23)"
   sodipodi:docname="Moondust2 ZH.svg"
   inkscape:export-filename="D:\Moondust YingchunEdit Update.png"
   inkscape:export-xdpi="74.560204"
   inkscape:export-ydpi="74.560204"
   xmlns:inkscape="http://www.inkscape.org/namespaces/inkscape"
   xmlns:sodipodi="http://sodipodi.sourceforge.net/DTD/sodipodi-0.dtd"
   xmlns:xlink="http://www.w3.org/1999/xlink"
   xmlns="http://www.w3.org/2000/svg"
   xmlns:svg="http://www.w3.org/2000/svg"
   xmlns:rdf="http://www.w3.org/1999/02/22-rdf-syntax-ns#"
   xmlns:cc="http://creativecommons.org/ns#"
   xmlns:dc="http://purl.org/dc/elements/1.1/">
  <metadata
     id="metadata92">
    <rdf:RDF>
      <cc:Work
         rdf:about="">
        <dc:format>image/svg+xml</dc:format>
        <dc:type
           rdf:resource="http://purl.org/dc/dcmitype/StillImage" />
      </cc:Work>
    </rdf:RDF>
  </metadata>
  <sodipodi:namedview
     id="namedview7"
     pagecolor="#262626"
     bordercolor="#666666"
     borderopacity="1.0"
     inkscape:pageshadow="2"
     inkscape:pageopacity="0"
     inkscape:pagecheckerboard="false"
     inkscape:document-units="mm"
     showgrid="false"
     inkscape:zoom="0.34872108"
     inkscape:cx="-308.26929"
     inkscape:cy="-143.38107"
     inkscape:window-width="1280"
     inkscape:window-height="971"
     inkscape:window-x="-8"
     inkscape:window-y="-8"
     inkscape:window-maximized="1"
     inkscape:current-layer="layer2"
     fit-margin-top="10"
     fit-margin-left="10"
     fit-margin-bottom="10"
     fit-margin-right="10" />
  <defs
     id="defs2">
    <linearGradient
       inkscape:collect="always"
       id="linearGradient38126">
      <stop
         style="stop-color:#8182fc;stop-opacity:1"
         offset="0"
         id="stop38122" />
      <stop
         style="stop-color:#0506ae;stop-opacity:1"
         offset="1"
         id="stop38124" />
    </linearGradient>
    <linearGradient
       inkscape:collect="always"
       id="linearGradient35604">
      <stop
         style="stop-color:#ff9a1e;stop-opacity:1"
         offset="0"
         id="stop35600" />
      <stop
         style="stop-color:#ffd80d;stop-opacity:1;"
         offset="0.22500297"
         id="stop36216" />
      <stop
         style="stop-color:#ffff00;stop-opacity:1"
         offset="1"
         id="stop35602" />
    </linearGradient>
    <linearGradient
       inkscape:collect="always"
       id="linearGradient12982">
      <stop
         style="stop-color:#5b5bff;stop-opacity:1;"
         offset="0"
         id="stop12978" />
      <stop
         style="stop-color:#b6b6ff;stop-opacity:1"
         offset="0.51754385"
         id="stop12984" />
      <stop
         style="stop-color:#5b5bff;stop-opacity:1"
         offset="1"
         id="stop12980" />
    </linearGradient>
    <linearGradient
       inkscape:collect="always"
       xlink:href="#linearGradient12982"
       id="linearGradient12928"
       x1="319.1662"
       y1="85.538589"
       x2="319.1662"
       y2="54.993046"
       gradientUnits="userSpaceOnUse" />
    <linearGradient
       inkscape:collect="always"
       xlink:href="#linearGradient12982"
       id="linearGradient12930"
       x1="319.1662"
       y1="85.538589"
       x2="319.1662"
       y2="54.993046"
       gradientUnits="userSpaceOnUse" />
    <linearGradient
       inkscape:collect="always"
       xlink:href="#linearGradient12982"
       id="linearGradient12932"
       x1="319.1662"
       y1="85.538589"
       x2="319.1662"
       y2="54.993046"
       gradientUnits="userSpaceOnUse" />
    <linearGradient
       inkscape:collect="always"
       xlink:href="#linearGradient12982"
       id="linearGradient12934"
       x1="319.1662"
       y1="85.538589"
       x2="319.1662"
       y2="54.993046"
       gradientUnits="userSpaceOnUse" />
    <linearGradient
       inkscape:collect="always"
       xlink:href="#linearGradient12982"
       id="linearGradient12936"
       x1="319.1662"
       y1="85.538589"
       x2="319.1662"
       y2="54.993046"
       gradientUnits="userSpaceOnUse" />
    <linearGradient
       inkscape:collect="always"
       xlink:href="#linearGradient12982"
       id="linearGradient12938"
       x1="319.1662"
       y1="85.538589"
       x2="319.1662"
       y2="54.993046"
       gradientUnits="userSpaceOnUse" />
    <linearGradient
       inkscape:collect="always"
       xlink:href="#linearGradient12982"
       id="linearGradient12940"
       x1="319.1662"
       y1="85.538589"
       x2="319.1662"
       y2="54.993046"
       gradientUnits="userSpaceOnUse" />
    <linearGradient
       inkscape:collect="always"
       xlink:href="#linearGradient12982"
       id="linearGradient12942"
       x1="319.1662"
       y1="85.538589"
       x2="319.1662"
       y2="54.993046"
       gradientUnits="userSpaceOnUse" />
    <linearGradient
       inkscape:collect="always"
       xlink:href="#linearGradient35604"
       id="linearGradient35598"
       x1="-163.20772"
       y1="70.101799"
       x2="-163.20772"
       y2="32.590538"
       gradientUnits="userSpaceOnUse"
       gradientTransform="translate(193.40072,-23.605976)" />
    <radialGradient
       inkscape:collect="always"
       xlink:href="#linearGradient38126"
       id="radialGradient38580"
       cx="-628.83179"
       cy="175.07809"
       fx="-628.83179"
       fy="175.07809"
       r="54.805012"
       gradientTransform="matrix(0.35509435,0,0,0.37435382,250.31692,-42.905199)"
       gradientUnits="userSpaceOnUse" />
    <linearGradient
       inkscape:collect="always"
       xlink:href="#linearGradient12982"
       id="linearGradient1141"
       x1="111.42972"
       y1="17.097481"
       x2="111.42972"
       y2="37.241795"
       gradientUnits="userSpaceOnUse"
       gradientTransform="translate(1.6154349,0.09740426)" />
  </defs>
  <g
     inkscape:groupmode="layer"
     id="layer2"
     inkscape:label="Слой 2"
     style="display:inline"
     transform="translate(-1.7504349,6.3983427)">
    <ellipse
       style="fill:url(#linearGradient35598);fill-opacity:1;fill-rule:nonzero;stroke:none;stroke-width:0.087;stroke-linejoin:round;stroke-miterlimit:4;stroke-dasharray:none;stroke-opacity:1;paint-order:stroke markers fill"
       id="path14144"
       cx="30.288616"
       cy="27.708199"
       rx="18.538181"
       ry="18.817162" />
    <path
       style="opacity:1;fill:none;fill-opacity:1;fill-rule:nonzero;stroke:none;stroke-width:0.05100241;paint-order:stroke markers fill"
       d="m 46.855161,36.616761 c 0.881573,-1.798947 1.527421,-3.866412 1.796899,-5.752166 0.367377,-2.57081 0.232244,-5.105254 -0.402471,-7.548356 -0.695123,-2.675628 -1.867323,-5.019114 -3.602093,-7.201371 -0.533614,-0.671263 -2.157005,-2.288249 -2.851433,-2.840183 -1.063794,-0.84551 -2.110573,-1.511159 -3.340655,-2.124339 -1.989014,-0.991492 -3.977961,-1.5737947 -6.298799,-1.8440927 -0.730014,-0.08502 -3.044166,-0.08502 -3.774178,0 -1.323181,0.154104 -2.713537,0.450636 -3.744812,0.7986757 -0.292412,0.09869 -0.540734,0.170352 -0.551825,0.159258 -0.04021,-0.04021 0.907079,-1.0900557 1.523367,-1.6882947 2.541932,-2.467478 5.714114,-4.097795 9.174073,-4.714941 1.982382,-0.353592 4.29958,-0.345155 6.290805,0.02291 5.335265,0.986186 9.953035,4.419734 12.484555,9.2828977 1.038019,1.99408 1.664031,4.050837 1.940441,6.375302 0.08805,0.740455 0.08805,3.186731 0,3.927186 -0.607875,5.111898 -3.150806,9.527048 -7.225665,12.545518 -0.400619,0.296762 -1.438082,0.973309 -1.570397,1.02408 -0.03702,0.01421 0.03146,-0.175731 0.152188,-0.422084 z"
       id="path20948"
       inkscape:connector-curvature="0" />
    <path
       style="opacity:1;fill:none;fill-opacity:0.99598401;fill-rule:nonzero;stroke:#5b5bff;stroke-width:0;stroke-linejoin:round;stroke-miterlimit:4;stroke-dasharray:none;stroke-opacity:1;paint-order:stroke fill markers"
       d="m 28.815951,46.444823 c -4.525653,-0.420587 -8.535712,-2.317454 -11.65675,-5.513957 -2.933279,-3.004206 -4.703762,-6.719207 -5.259178,-11.035315 -0.128431,-0.998043 -0.128296,-3.371898 2.51e-4,-4.386207 0.555477,-4.383027 2.378996,-8.138247 5.437606,-11.197807 1.519213,-1.519684 3.142532,-2.669939 5.070903,-3.59315 0.651544,-0.311928 1.545473,-0.688276 1.634841,-0.688276 0.01386,0 -0.173415,0.246726 -0.416157,0.548277 -2.979777,3.70168 -4.364318,8.689406 -3.74118,13.477385 0.460823,3.540803 1.87642,6.725087 4.182714,9.408705 4.470373,5.201759 11.524556,7.298277 18.093465,5.377418 1.202066,-0.351504 2.717313,-1.002874 3.799192,-1.633183 0.18723,-0.109079 0.355806,-0.198326 0.374616,-0.198326 0.110294,0 -1.072227,1.776733 -1.727782,2.595981 -0.676871,0.845886 -1.981465,2.147474 -2.828447,2.821929 -2.683414,2.136817 -5.790827,3.468682 -9.138915,3.917029 -0.898975,0.120383 -3.009688,0.175284 -3.825179,0.0995 z"
       id="path27405"
       inkscape:connector-curvature="0" />
    <path
       style="opacity:1;fill:none;fill-opacity:0.99598401;fill-rule:nonzero;stroke-width:0.26458332;paint-order:stroke fill markers"
       d="m 35.522768,39.326303 c -3.615669,-0.485954 -6.420257,-1.638112 -8.950923,-3.67715 -2.498973,-2.013502 -4.264123,-4.401888 -5.458423,-7.385679 -1.364559,-3.409154 -1.596548,-7.428153 -0.638902,-11.06837 0.6663,-2.532758 1.942631,-4.966692 3.677012,-7.011985 0.513263,-0.6052707 1.726774,-1.7777487 2.394813,-2.3138287 2.035222,-1.633207 4.517638,-2.812052 7.089333,-3.366566 1.274373,-0.274783 1.495647,-0.296376 3.318684,-0.323853 1.893373,-0.02853 2.433977,0.01117 3.742974,0.274847 2.879204,0.579993 5.820937,2.062837 7.962813,4.013824 1.92111,1.7498987 3.143588,3.3491297 4.176963,5.4642547 0.666856,1.364921 1.123694,2.710322 1.425954,4.199469 0.300942,1.482656 0.331187,1.82128 0.330978,3.705905 -1.54e-4,1.54737 -0.0123,1.807361 -0.112639,2.414682 -0.505036,3.056877 -1.477489,5.49446 -3.116437,7.811773 -0.82256,1.163021 -2.25579,2.67548 -3.397612,3.58544 -2.00669,1.599203 -4.385905,2.741499 -6.910827,3.317997 -1.400492,0.319765 -1.686102,0.348546 -3.62117,0.364918 -0.967772,0.0082 -1.828438,0.0056 -1.912591,-0.0057 z"
       id="path27481"
       inkscape:connector-curvature="0" />
    <path
       style="opacity:1;fill:none;fill-opacity:0.99598401;fill-rule:nonzero;stroke-width:0;stroke-miterlimit:4;stroke-dasharray:none;paint-order:stroke fill markers"
       d="m 28.79045,46.411049 c -0.112207,-0.0097 -0.536802,-0.06415 -0.943546,-0.121 C 22.790256,45.5833 18.314927,42.85494 15.300313,38.641083 11.795986,33.742706 10.874958,27.274588 12.861371,21.513109 c 0.532093,-1.543301 1.187503,-2.862728 2.106496,-4.240654 0.632804,-0.948817 1.115864,-1.561568 1.849543,-2.346111 1.930584,-2.064427 3.76148,-3.36415 6.34933,-4.507285 0.357275,-0.157819 0.671864,-0.286944 0.69909,-0.286944 0.02723,0 -0.207711,0.341895 -0.522081,0.759762 -0.69587,0.924967 -1.10498,1.575165 -1.625971,2.584159 -1.04408,2.022049 -1.684184,4.20616 -1.934734,6.60155 -0.07906,0.75588 -0.07814,2.605976 0.0016,3.391662 0.476465,4.68939 2.619328,8.847195 6.124083,11.88258 2.012675,1.74313 4.531048,3.047177 7.152865,3.703849 2.333691,0.584507 5.016935,0.664356 7.426263,0.220999 1.739111,-0.32003 3.777526,-1.061667 5.303844,-1.929705 0.234053,-0.133109 0.434607,-0.23296 0.445675,-0.221895 0.07041,0.07041 -1.33372,2.077641 -1.966452,2.811081 -0.578296,0.670344 -1.943261,2.003074 -2.515909,2.456495 -2.980298,2.359798 -6.553553,3.774284 -10.107645,4.001146 -0.755915,0.04825 -2.384656,0.05808 -2.857006,0.01725 z"
       id="path27557"
       inkscape:connector-curvature="0" />
    <path
       style="opacity:1;fill:none;fill-opacity:0.99598401;fill-rule:nonzero;stroke-width:0;stroke-miterlimit:4;stroke-dasharray:none;paint-order:stroke fill markers"
       d="m 28.79045,46.411049 c -0.112207,-0.0097 -0.536802,-0.06415 -0.943546,-0.121 C 22.790256,45.5833 18.314927,42.85494 15.300313,38.641083 11.795986,33.742706 10.874958,27.274588 12.861371,21.513109 c 0.532093,-1.543301 1.187503,-2.862728 2.106496,-4.240654 0.632804,-0.948817 1.115864,-1.561568 1.849543,-2.346111 1.930584,-2.064427 3.76148,-3.36415 6.34933,-4.507285 0.357275,-0.157819 0.671864,-0.286944 0.69909,-0.286944 0.02723,0 -0.207711,0.341895 -0.522081,0.759762 -0.69587,0.924967 -1.10498,1.575165 -1.625971,2.584159 -1.04408,2.022049 -1.684184,4.20616 -1.934734,6.60155 -0.07906,0.75588 -0.07814,2.605976 0.0016,3.391662 0.476465,4.68939 2.619328,8.847195 6.124083,11.88258 2.012675,1.74313 4.531048,3.047177 7.152865,3.703849 2.333691,0.584507 5.016935,0.664356 7.426263,0.220999 1.739111,-0.32003 3.777526,-1.061667 5.303844,-1.929705 0.234053,-0.133109 0.434607,-0.23296 0.445675,-0.221895 0.07041,0.07041 -1.33372,2.077641 -1.966452,2.811081 -0.578296,0.670344 -1.943261,2.003074 -2.515909,2.456495 -2.980298,2.359798 -6.553553,3.774284 -10.107645,4.001146 -0.755915,0.04825 -2.384656,0.05808 -2.857006,0.01725 z"
       id="path27596"
       inkscape:connector-curvature="0" />
    <path
       style="opacity:1;fill:none;fill-opacity:0.99598401;fill-rule:nonzero;stroke-width:0;stroke-miterlimit:4;stroke-dasharray:none;paint-order:stroke fill markers"
       d="m 28.79045,46.411049 c -0.112207,-0.0097 -0.536802,-0.06415 -0.943546,-0.121 C 22.790256,45.5833 18.314927,42.85494 15.300313,38.641083 11.795986,33.742706 10.874958,27.274588 12.861371,21.513109 c 0.532093,-1.543301 1.187503,-2.862728 2.106496,-4.240654 0.632804,-0.948817 1.115864,-1.561568 1.849543,-2.346111 1.930584,-2.064427 3.76148,-3.36415 6.34933,-4.507285 0.357275,-0.157819 0.671864,-0.286944 0.69909,-0.286944 0.02723,0 -0.207711,0.341895 -0.522081,0.759762 -0.69587,0.924967 -1.10498,1.575165 -1.625971,2.584159 -1.04408,2.022049 -1.684184,4.20616 -1.934734,6.60155 -0.07906,0.75588 -0.07814,2.605976 0.0016,3.391662 0.476465,4.68939 2.619328,8.847195 6.124083,11.88258 2.012675,1.74313 4.531048,3.047177 7.152865,3.703849 2.333691,0.584507 5.016935,0.664356 7.426263,0.220999 1.739111,-0.32003 3.777526,-1.061667 5.303844,-1.929705 0.234053,-0.133109 0.434607,-0.23296 0.445675,-0.221895 0.07041,0.07041 -1.33372,2.077641 -1.966452,2.811081 -0.578296,0.670344 -1.943261,2.003074 -2.515909,2.456495 -2.980298,2.359798 -6.553553,3.774284 -10.107645,4.001146 -0.755915,0.04825 -2.384656,0.05808 -2.857006,0.01725 z"
       id="path27635"
       inkscape:connector-curvature="0" />
    <path
       style="opacity:1;fill:none;fill-opacity:0.99598401;fill-rule:nonzero;stroke:none;stroke-width:0;stroke-miterlimit:4;stroke-dasharray:none;paint-order:stroke fill markers"
       d="m 28.79045,46.411049 c -0.112207,-0.0097 -0.536802,-0.06415 -0.943546,-0.121 C 22.790256,45.5833 18.314927,42.85494 15.300313,38.641083 11.795986,33.742706 10.874958,27.274588 12.861371,21.513109 c 0.532093,-1.543301 1.187503,-2.862728 2.106496,-4.240654 0.632804,-0.948817 1.115864,-1.561568 1.849543,-2.346111 1.930584,-2.064427 3.76148,-3.36415 6.34933,-4.507285 0.357275,-0.157819 0.671864,-0.286944 0.69909,-0.286944 0.02723,0 -0.207711,0.341895 -0.522081,0.759762 -0.69587,0.924967 -1.10498,1.575165 -1.625971,2.584159 -1.04408,2.022049 -1.684184,4.20616 -1.934734,6.60155 -0.07906,0.75588 -0.07814,2.605976 0.0016,3.391662 0.476465,4.68939 2.619328,8.847195 6.124083,11.88258 2.012675,1.74313 4.531048,3.047177 7.152865,3.703849 2.333691,0.584507 5.016935,0.664356 7.426263,0.220999 1.739111,-0.32003 3.777526,-1.061667 5.303844,-1.929705 0.234053,-0.133109 0.434607,-0.23296 0.445675,-0.221895 0.07041,0.07041 -1.33372,2.077641 -1.966452,2.811081 -0.578296,0.670344 -1.943261,2.003074 -2.515909,2.456495 -2.980298,2.359798 -6.553553,3.774284 -10.107645,4.001146 -0.755915,0.04825 -2.384656,0.05808 -2.857006,0.01725 z"
       id="path27750"
       inkscape:connector-curvature="0" />
    <path
       style="opacity:1;fill:none;fill-opacity:0.99598401;fill-rule:nonzero;stroke-width:0.05100241;paint-order:stroke fill markers"
       d="M 28.560938,46.388085 C 25.261533,46.051752 21.936909,44.758924 19.357026,42.809011 17.79424,41.627835 16.285505,40.06402 15.189606,38.489456 12.092015,34.038897 11.067649,28.38066 12.399112,23.075746 c 0.777663,-3.098432 2.271516,-5.85379 4.418298,-8.149402 1.617506,-1.729647 3.201611,-2.944598 5.113215,-3.921657 0.681395,-0.348273 1.846572,-0.872572 1.939168,-0.872572 0.02638,0 -0.209806,0.342601 -0.52484,0.761334 -0.747734,0.993862 -1.13229,1.613029 -1.697014,2.732333 -2.561831,5.077627 -2.57611,11.152203 -0.03812,16.215492 0.349088,0.696434 0.682641,1.257885 0.766389,1.290021 0.173022,0.06639 0.146429,-0.113612 -0.07115,-0.481634 -1.251773,-2.117286 -2.080098,-4.71945 -2.310032,-7.256918 -0.07693,-0.84892 -0.06482,-2.662517 0.02331,-3.493666 0.374994,-3.536299 1.752949,-6.789653 4.050033,-9.562119 0.496461,-0.5992037 1.810805,-1.8832587 2.477971,-2.4208627 2.242224,-1.8068 5.038095,-3.051799 8.032877,-3.57704 0.629867,-0.110468 4.02738,-0.164597 4.782715,-0.0762 1.83143,0.214339 3.757607,0.80845 5.545275,1.710388 1.880737,0.948894 3.232629,1.947328 4.745233,3.504576 1.39569,1.4368857 2.351402,2.8057977 3.211944,4.6006147 0.633507,1.321294 0.995741,2.375699 1.32116,3.845692 0.306601,1.384998 0.34286,1.727343 0.372321,3.515315 0.03091,1.875856 -0.0051,2.369875 -0.26738,3.664963 -0.641501,3.168031 -1.949055,5.891699 -3.907694,8.139824 -2.564072,2.94304 -5.48141,4.741733 -9.162153,5.648955 -1.48571,0.366196 -1.675974,0.384596 -3.989294,0.385762 -2.058736,0.0011 -2.06797,5.3e-4 -2.779633,-0.141419 -2.018072,-0.402648 -3.483485,-0.887106 -4.968726,-1.642629 -2.533002,-1.288507 -4.855313,-3.347114 -6.487147,-5.750509 -0.22379,-0.329605 -0.423047,-0.598927 -0.442791,-0.598498 -0.01974,5.29e-4 -0.06743,0.02074 -0.105963,0.04516 -0.155432,0.09846 1.21543,1.926482 2.237433,2.983588 1.529842,1.582385 3.005196,2.662324 4.921967,3.602812 1.782586,0.874649 3.43221,1.375355 5.48276,1.664171 0.909187,0.128058 3.487232,0.129159 4.360704,0.0019 2.358173,-0.343672 4.511297,-1.055462 6.341832,-2.09651 0.234056,-0.13311 0.435002,-0.232569 0.446548,-0.221023 0.03264,0.03264 -0.498488,0.858822 -1.038296,1.615091 -1.226606,1.718461 -3.016449,3.450902 -4.781037,4.627695 -2.6348,1.757135 -5.750375,2.83156 -8.771544,3.024923 -0.947976,0.06067 -2.463493,0.05794 -3.086518,-0.0056 z"
       id="path27904"
       inkscape:connector-curvature="0" />
    <path
       style="opacity:1;fill:none;fill-opacity:0.99598401;fill-rule:nonzero;stroke-width:0;stroke-miterlimit:4;stroke-dasharray:none;paint-order:stroke fill markers"
       d="M 28.560938,46.388085 C 25.261533,46.051752 21.936909,44.758924 19.357026,42.809011 17.79424,41.627835 16.285505,40.06402 15.189606,38.489456 12.092015,34.038897 11.067649,28.38066 12.399112,23.075746 c 0.777663,-3.098432 2.271516,-5.85379 4.418298,-8.149402 1.617506,-1.729647 3.201611,-2.944598 5.113215,-3.921657 0.681395,-0.348273 1.846572,-0.872572 1.939168,-0.872572 0.02638,0 -0.209806,0.342601 -0.52484,0.761334 -0.747734,0.993862 -1.13229,1.613029 -1.697014,2.732333 -2.739009,5.428798 -2.550398,12.013591 0.492527,17.195392 1.780365,3.031787 4.353139,5.428904 7.466023,6.956277 1.782585,0.874649 3.432209,1.375355 5.482759,1.664171 0.909188,0.128058 3.487233,0.129159 4.360705,0.0019 2.358173,-0.343672 4.511296,-1.055462 6.341832,-2.09651 0.234056,-0.13311 0.435001,-0.232569 0.446548,-0.221023 0.03264,0.03264 -0.498488,0.858822 -1.038297,1.615091 -1.226605,1.718461 -3.016448,3.450902 -4.781036,4.627695 -2.634801,1.757135 -5.750376,2.83156 -8.771544,3.024923 -0.947976,0.06067 -2.463493,0.05794 -3.086518,-0.0056 z"
       id="path27980"
       inkscape:connector-curvature="0" />
    <path
       style="opacity:1;fill:none;fill-opacity:0.99598401;fill-rule:nonzero;stroke-width:0.05100241;paint-order:stroke fill markers"
       d="m 35.293258,39.274011 c -0.07013,-0.01294 -0.448823,-0.08093 -0.841542,-0.151114 -3.323248,-0.593862 -5.932937,-1.830422 -8.466399,-4.011668 -3.052196,-2.627863 -5.204989,-6.491962 -5.83252,-10.468927 -0.303874,-1.925802 -0.286665,-4.182078 0.0461,-6.043785 0.535961,-2.998552 1.871602,-5.850215 3.869481,-8.261559 0.496461,-0.5992037 1.810806,-1.8832587 2.477971,-2.4208627 2.242225,-1.8068 5.038095,-3.051799 8.032877,-3.57704 0.629867,-0.110468 4.027379,-0.164597 4.782714,-0.0762 1.83143,0.214339 3.757608,0.80845 5.545275,1.710388 1.880738,0.948894 3.232629,1.947328 4.745234,3.504576 1.39569,1.4368857 2.351402,2.8057977 3.211943,4.6006147 0.633508,1.321294 0.995741,2.375699 1.32116,3.845692 0.306602,1.384998 0.342861,1.727343 0.372322,3.515315 0.03091,1.875856 -0.0051,2.369875 -0.26738,3.664963 -0.724919,3.579985 -2.224887,6.450973 -4.710957,9.016913 -2.288495,2.36202 -5.022939,3.934322 -8.257875,4.748268 -1.481625,0.37279 -1.704687,0.39634 -3.911802,0.412959 -1.094002,0.0082 -2.04647,0.0044 -2.116598,-0.0085 z"
       id="path28019"
       inkscape:connector-curvature="0" />
    <path
       style="opacity:1;fill:none;fill-opacity:0.99598401;fill-rule:nonzero;stroke-width:0.05100241;paint-order:stroke fill markers"
       d="m 35.293258,39.274011 c -0.07013,-0.01294 -0.448823,-0.08093 -0.841542,-0.151114 -3.323248,-0.593862 -5.932937,-1.830422 -8.466399,-4.011668 -3.052196,-2.627863 -5.204989,-6.491962 -5.83252,-10.468927 -0.303874,-1.925802 -0.286665,-4.182078 0.0461,-6.043785 0.535961,-2.998552 1.871602,-5.850215 3.869481,-8.261559 0.496461,-0.5992037 1.810806,-1.8832587 2.477971,-2.4208627 2.242225,-1.8068 5.038095,-3.051799 8.032877,-3.57704 0.629867,-0.110468 4.027379,-0.164597 4.782714,-0.0762 1.83143,0.214339 3.757608,0.80845 5.545275,1.710388 1.880738,0.948894 3.232629,1.947328 4.745234,3.504576 1.39569,1.4368857 2.351402,2.8057977 3.211943,4.6006147 0.633508,1.321294 0.995741,2.375699 1.32116,3.845692 0.306602,1.384998 0.342861,1.727343 0.372322,3.515315 0.03091,1.875856 -0.0051,2.369875 -0.26738,3.664963 -0.724919,3.579985 -2.224887,6.450973 -4.710957,9.016913 -2.288495,2.36202 -5.022939,3.934322 -8.257875,4.748268 -1.481625,0.37279 -1.704687,0.39634 -3.911802,0.412959 -1.094002,0.0082 -2.04647,0.0044 -2.116598,-0.0085 z"
       id="path28058"
       inkscape:connector-curvature="0" />
    <path
       style="opacity:1;fill:url(#radialGradient38580);fill-opacity:1;fill-rule:nonzero;stroke:none;stroke-width:0.05100241;stroke-opacity:1;paint-order:stroke fill markers"
       d="m 36.211301,39.479619 c -0.09818,-0.01146 -0.442447,-0.04563 -0.765037,-0.07596 -2.224921,-0.209155 -4.699834,-1.007361 -6.757818,-2.179523 -3.020843,-1.720575 -5.548255,-4.424728 -7.087947,-7.583602 -1.163346,-2.38675 -1.7317,-4.720899 -1.796624,-7.37848 -0.05594,-2.289595 0.235977,-4.231843 0.951003,-6.327558 0.672218,-1.970249 1.538361,-3.57261 2.832803,-5.240684 0.262549,-0.338328 0.484825,-0.634838 0.493954,-0.658913 0.024,-0.0633 1.06042,-0.3887567 1.874829,-0.5887297 3.661952,-0.89917 7.463822,-0.642754 10.997724,0.7417387 5.537483,2.169445 9.736646,6.939978 11.241675,12.771313 1.12594,4.362516 0.664827,8.944321 -1.312733,13.043873 l -0.436702,0.905299 -0.463595,0.249912 c -2.428243,1.309005 -4.205955,1.901706 -6.685886,2.22912 -0.536311,0.07081 -2.711726,0.135802 -3.085646,0.09219 z"
       id="path29917"
       inkscape:connector-curvature="0" />
    <path
       inkscape:connector-curvature="0"
       id="path22-9"
       d="m 46.156544,20.609231 0.13229,-2.414323 1.98438,-1.389063 -2.4474,-0.09922 -1.32291,-1.984375 -0.1323,2.414323 -2.01744,1.322916 2.44739,0.132292 z"
       style="display:inline;fill:#ffffff;fill-rule:evenodd;stroke:#cccccc;stroke-width:0.1;stroke-miterlimit:4;stroke-dasharray:none" />
    <path
       inkscape:connector-curvature="0"
       id="path24-4"
       d="m 38.384414,11.051158 -0.8599,-0.297657 -0.297661,-0.8268227 -0.26458,0.8598957 -0.89297,0.297656 0.89297,0.264584 0.29766,0.892969 0.297651,-0.892969 z"
       style="display:inline;fill:#ffffff;fill-rule:evenodd;stroke:#cccccc;stroke-width:0.1;stroke-miterlimit:4;stroke-dasharray:none" />
    <path
       inkscape:connector-curvature="0"
       id="path26-2"
       d="m 33.721123,21.369908 -1.48828,-0.694531 0.76068,1.422135 -0.7276,1.455209 1.4552,-0.727604 1.45521,0.694531 -0.76067,-1.422136 0.7276,-1.488281 z"
       style="display:inline;fill:#ffffff;fill-rule:evenodd;stroke:none;stroke-width:0.33072901" />
    <path
       inkscape:connector-curvature="0"
       id="path28-8"
       d="m 32.728943,33.772253 -0.42995,-1.918229 1.28984,-1.488282 -1.91823,0.429948 -1.48828,-1.256771 0.42995,1.885157 -1.28984,1.521354 1.91822,-0.463021 z"
       style="display:inline;fill:#ffffff;fill-rule:evenodd;stroke:none;stroke-width:0.33072901" />
    <path
       inkscape:connector-curvature="0"
       id="path32-3"
       d="m 24.923733,17.20272 0.82682,-0.760677 1.12448,0.198438 -0.76068,-0.826823 0.19844,-1.091406 -0.82682,0.760677 -1.12448,-0.231511 0.76067,0.826823 z"
       style="display:inline;fill:#ffffff;fill-rule:evenodd;stroke:none;stroke-width:0.33072901" />
    <path
       inkscape:connector-curvature="0"
       id="path22-2"
       d="m 53.686984,37.273761 -5.00203,-4.581617 0.28659,-3.51193 0.26487,-3.246004 -4.61351,5.109922 -6.68407,-0.673291 5.00202,4.581626 -0.75444,6.711658 4.68534,-5.051054 z"
       style="display:inline;fill:#ffffff;fill-rule:evenodd;stroke:#b3b3b3;stroke-width:0.1;stroke-opacity:1;stroke-miterlimit:4;stroke-dasharray:none"
       sodipodi:nodetypes="cccccccccc" />
    <text
       xml:space="preserve"
       style="font-style:normal;font-variant:normal;font-weight:900;font-stretch:normal;font-size:24.6945px;line-height:1.25;font-family:JingNanYuanMoT;-inkscape-font-specification:'JingNanYuanMoT Heavy';letter-spacing:4.7625px;fill:url(#linearGradient1141);fill-opacity:1;fill-rule:evenodd;stroke-width:0.264583"
       x="54.673229"
       y="36.126728"
       id="text5447"><tspan
         sodipodi:role="line"
         id="tspan5445"
         style="font-style:normal;font-variant:normal;font-weight:900;font-stretch:normal;font-size:24.6945px;font-family:JingNanYuanMoT;-inkscape-font-specification:'JingNanYuanMoT Heavy';fill:url(#linearGradient1141);fill-opacity:1;stroke-width:0.264583"
         x="54.673229"
         y="36.126728">月尘引擎</tspan></text>
  </g>
  <g
     inkscape:label="Слой 1"
     inkscape:groupmode="layer"
     id="layer1"
     style="display:none"
     transform="translate(-1.7504349,6.3983427)">
    <path
       inkscape:connector-curvature="0"
       id="path30"
       d="m -144.7927,56.320135 0.62839,-6.779948 -4.59714,4.99401 -6.77995,-0.661458 5.02708,4.630209 -0.33072,3.638021 c -2.41433,0.661458 -4.96094,0.826823 -7.67292,0.363802 -4.82865,-0.727604 -8.66511,-3.108854 -11.50938,-7.044532 -2.91041,-3.935677 -3.93568,-8.334375 -3.20807,-13.163022 0.49609,-3.141927 1.68672,-5.853906 3.57187,-8.135938 -1.48828,0.56224 -2.91041,1.322917 -4.2664,2.315105 -4.13412,3.009635 -6.58151,7.044531 -7.40834,12.071615 -0.79375,5.060157 0.33073,9.657292 3.3073,13.82448 3.0427,4.134115 7.0776,6.581511 12.10468,7.408334 5.06016,0.79375 9.6573,-0.297656 13.79141,-3.307292 2.31511,-1.686719 4.10104,-3.671094 5.39089,-6.019271 l 0.19844,-0.23151 6.74687,0.661458 z"
       style="opacity:1;fill:#97b3d5;fill-rule:evenodd;stroke:none;stroke-width:0.33072901" />
    <g
       style="opacity:1;fill-rule:evenodd"
       id="g55"
       transform="matrix(0.33072918,0,0,0.33072918,-188.23694,26.918088)">
      <path
         inkscape:connector-curvature="0"
         id="path6"
         d="m 481.74661,85.49995 v -6 h -10.1 c -0.4,0 -0.6,0 -0.9,-0.1 -0.2,-0.1 -0.4,-0.2 -0.5,-0.4 -0.2,-0.1 -0.2,-0.3 -0.2,-0.5 -0.1,-0.2 -0.1,-0.4 -0.1,-0.5 v -17 h 11.1 v -5.9 h -11.1 v -6.6 h -14.2 v 6.6 h -5.8 v 5.9 h 6 v 16.6 c 0,0.4 0,0.8 0,1.2 0.1,0.3 0.1,0.7 0.2,1 0.1,0.5 0.3,1 0.4,1.5 0.3,0.5 0.5,0.9 0.8,1.3 0.2,0.4 0.6,0.7 0.9,1 0.3,0.3 0.7,0.6 1,0.9 0.6,0.3 1.2,0.5 1.8,0.7 0.7,0.1 1.5,0.3 2.3,0.3 z"
         style="fill:url(#linearGradient12928);fill-opacity:1;stroke:none" />
      <path
         inkscape:connector-curvature="0"
         id="path8"
         d="m 421.94661,55.19995 c -0.6,0 -1.2,0.1 -1.7,0.1 -0.6,0.2 -1.2,0.3 -1.7,0.5 -0.5,0.2 -0.8,0.3 -1.3,0.6 -0.3,0.2 -0.7,0.5 -1,0.8 -0.4,0.3 -0.7,0.6 -1,0.9 -0.2,0.4 -0.5,0.7 -0.7,1.2 -0.2,0.3 -0.3,0.7 -0.5,1.2 -0.1,0.5 -0.1,1 -0.1,1.5 v 8 c 0,0.5 0,0.8 0,1.1 0.1,0.4 0.1,0.7 0.1,1 0.2,0.4 0.4,0.7 0.5,1 0.2,0.4 0.4,0.7 0.6,0.9 0.3,0.3 0.5,0.6 0.9,0.8 0.3,0.3 0.6,0.5 1,0.6 0.5,0.2 1,0.4 1.6,0.5 0.6,0.1 1.1,0.1 1.6,0.1 h 13.7 c 0.1,0 0.3,0.1 0.5,0.1 0.1,0.1 0.3,0.2 0.4,0.3 0.2,0.1 0.3,0.1 0.4,0.3 0,0.1 0,0.3 0,0.4 v 1.7 c 0,0.2 0,0.3 0,0.5 -0.1,0.2 -0.2,0.2 -0.4,0.3 -0.1,0.2 -0.3,0.2 -0.4,0.3 -0.2,0.1 -0.4,0.1 -0.5,0.1 h -19.9 v 5.5 h 26.8 c 0.6,0 1.1,0 1.7,-0.2 0.5,0 1,-0.2 1.6,-0.5 0.4,-0.1 0.8,-0.3 1.1,-0.6 0.4,-0.2 0.8,-0.5 1.2,-0.9 0.2,-0.3 0.5,-0.6 0.8,-1 0.2,-0.3 0.4,-0.7 0.5,-1.1 0.3,-0.4 0.4,-0.9 0.5,-1.4 0.1,-0.5 0.2,-1 0.2,-1.6 v -7.1 c 0,-0.6 -0.1,-1.1 -0.2,-1.6 0,-0.5 -0.2,-1 -0.3,-1.4 -0.2,-0.4 -0.4,-0.8 -0.5,-1.1 -0.3,-0.4 -0.5,-0.7 -0.8,-0.9 -0.3,-0.3 -0.6,-0.6 -1,-0.8 -0.4,-0.3 -0.7,-0.5 -1.1,-0.6 -0.5,-0.1 -0.8,-0.2 -1.3,-0.3 -0.5,-0.1 -0.8,-0.1 -1.3,-0.1 h -13.7 c -0.1,0 -0.3,0 -0.5,0 -0.1,-0.1 -0.3,-0.2 -0.5,-0.3 -0.1,0 -0.2,-0.1 -0.3,-0.2 -0.2,-0.1 -0.2,-0.2 -0.2,-0.3 v -1.7 c 0,-0.2 0,-0.3 0.2,-0.5 0,0 0.1,-0.2 0.3,-0.3 0.2,0 0.3,-0.1 0.5,-0.2 0.2,0 0.3,0 0.4,0 h 18.6 v -5.6 z"
         style="fill:url(#linearGradient12930);fill-opacity:1;stroke:none" />
      <path
         inkscape:connector-curvature="0"
         id="path10"
         d="m 409.34661,55.09995 h -14 v 22.9 c 0,0.3 -0.1,0.5 -0.1,0.6 -0.2,0.2 -0.3,0.4 -0.5,0.5 -0.1,0.2 -0.3,0.3 -0.5,0.4 -0.2,0 -0.4,0 -0.6,0 h -6.3 c -0.2,0 -0.4,0 -0.6,-0.1 -0.2,-0.1 -0.4,-0.2 -0.6,-0.4 -0.1,-0.1 -0.3,-0.3 -0.4,-0.5 -0.2,-0.2 -0.2,-0.4 -0.2,-0.6 v -22.8 h -13.8 v 21.2 c 0,0.6 0,1.2 0.2,1.7 0.1,0.5 0.1,1 0.3,1.6 0.2,0.5 0.5,1.1 0.8,1.6 0.2,0.6 0.5,1 0.9,1.4 0.3,0.4 0.7,0.9 1.1,1.2 0.5,0.3 0.9,0.7 1.4,1 0.5,0.2 1.1,0.3 1.6,0.5 0.6,0.2 1.2,0.2 1.9,0.2 h 29.4 z"
         style="fill:url(#linearGradient12932);fill-opacity:1;stroke:none" />
      <path
         inkscape:connector-curvature="0"
         id="path12"
         d="m 367.24661,44.19995 h -14.1 v 10.9 c -2.6,0 -5.1,0 -7.7,0 -2.6,0 -5.2,0 -7.7,0 -0.1,0 -0.2,0 -0.2,0 -0.1,-0.1 -0.3,-0.1 -0.5,-0.1 -0.1,0 -0.5,0 -0.8,0.1 -0.5,0.2 -1,0.4 -1.7,0.6 -0.5,0.2 -0.9,0.4 -1.3,0.8 -0.5,0.2 -1,0.5 -1.3,1 -0.3,0.3 -0.6,0.7 -0.9,1.1 -0.3,0.5 -0.5,0.9 -0.6,1.5 -0.2,0.5 -0.4,1.1 -0.5,1.7 -0.1,0.7 -0.2,1.3 -0.2,2 v 13.5 c 0,0.4 0.1,0.9 0.2,1.3 0.1,0.5 0.1,1 0.3,1.5 0.2,0.5 0.3,0.9 0.6,1.4 0.2,0.5 0.5,0.9 0.8,1.3 0.3,0.3 0.6,0.7 1.1,1.1 0.5,0.4 0.9,0.6 1.4,0.9 0.1,0 0.1,0 0.2,0.1 0.1,0.1 0.2,0.2 0.4,0.3 0.3,0.1 0.7,0.1 1.1,0.2 0.4,0.1 1.1,0.1 1.9,0.1 h 29.5 z m -15.7,16.8 c 0.2,0 0.5,0.1 0.6,0.3 0.2,0 0.4,0.2 0.6,0.4 0.1,0.2 0.2,0.4 0.3,0.6 0.1,0.3 0.2,0.5 0.2,0.7 v 14.6 c 0,0.2 -0.1,0.4 -0.2,0.7 -0.1,0.2 -0.2,0.5 -0.3,0.7 -0.2,0.1 -0.4,0.2 -0.6,0.3 -0.1,0.2 -0.4,0.2 -0.6,0.2 h -6 c -0.3,0 -0.5,0 -0.8,-0.1 -0.2,-0.1 -0.3,-0.3 -0.5,-0.4 -0.2,-0.2 -0.3,-0.4 -0.4,-0.7 -0.1,-0.2 -0.1,-0.4 -0.1,-0.6 v -14.6 c 0,-0.3 0,-0.5 0.1,-0.7 0.1,-0.3 0.2,-0.4 0.4,-0.6 0.1,-0.3 0.3,-0.4 0.5,-0.5 0.3,-0.2 0.5,-0.3 0.6,-0.3 z"
         style="fill:url(#linearGradient12934);fill-opacity:1;stroke:none" />
      <path
         inkscape:connector-curvature="0"
         id="path14"
         d="m 325.84661,65.49995 c 0,-0.8 -0.1,-1.5 -0.1,-2.1 0,-0.6 -0.2,-1.3 -0.3,-1.9 -0.2,-0.5 -0.4,-1.1 -0.6,-1.6 -0.3,-0.6 -0.5,-1 -0.8,-1.4 -0.6,-1 -1.5,-1.8 -2.5,-2.4 -1.2,-0.6 -2.5,-0.9 -4,-0.9 h -29.4 v 30.3 h 14.1 v -22.7 c 0,-0.3 0,-0.5 0.1,-0.8 0.2,-0.2 0.2,-0.4 0.4,-0.5 0.2,-0.1 0.3,-0.2 0.6,-0.3 0.2,-0.1 0.4,-0.2 0.6,-0.2 h 6.1 c 0.2,0 0.5,0.1 0.7,0.2 0.3,0.1 0.5,0.2 0.7,0.4 0.1,0.2 0.3,0.3 0.3,0.5 0.1,0.2 0.2,0.5 0.2,0.8 v 22.6 h 13.9 z"
         style="fill:url(#linearGradient12936);fill-opacity:1;stroke:none" />
      <path
         inkscape:connector-curvature="0"
         id="path16"
         d="m 278.24661,55.29995 c -0.5,0 -1,-0.1 -1.6,-0.1 h -24.1 c -0.4,0 -0.9,0.1 -1.4,0.1 -0.4,0 -0.9,0.2 -1.4,0.3 -0.4,0.2 -0.8,0.4 -1.3,0.7 -0.4,0.2 -0.7,0.6 -1,1 -0.4,0.4 -0.6,0.8 -0.9,1.3 -0.2,0.6 -0.4,1.2 -0.6,1.9 0,0.3 0,0.8 -0.1,1.3 0,0.4 0,0.9 0,1.5 v 14.6 c 0,0.4 0,0.9 0,1.2 0.1,0.4 0.1,0.7 0.1,1 0.2,0.5 0.4,1.1 0.5,1.5 0.3,0.5 0.5,0.9 0.8,1.3 0.3,0.4 0.7,0.7 1,1.1 0.4,0.3 0.8,0.5 1.2,0.8 0.6,0.2 1.1,0.4 1.7,0.5 0.6,0.2 1.2,0.2 1.9,0.2 h 23.6 c 0.6,0 1.1,0 1.6,-0.1 0.6,-0.1 1.2,-0.3 1.7,-0.4 0.3,-0.2 0.7,-0.4 1.1,-0.6 0.3,-0.3 0.7,-0.6 0.9,-0.9 0.3,-0.4 0.6,-0.7 0.8,-1.2 0.3,-0.4 0.5,-0.9 0.6,-1.5 0.2,-0.4 0.2,-0.9 0.2,-1.5 0.1,-0.5 0.2,-1 0.2,-1.7 v -14.3 c 0,-0.5 0,-1.1 -0.1,-1.5 -0.1,-0.5 -0.1,-1 -0.2,-1.4 -0.2,-0.7 -0.4,-1.3 -0.6,-1.9 -0.3,-0.5 -0.5,-0.9 -0.8,-1.3 -0.3,-0.4 -0.8,-0.7 -1.1,-0.9 -0.4,-0.3 -0.8,-0.5 -1.2,-0.7 -0.5,-0.1 -1,-0.3 -1.5,-0.3 z m -10,5.9 c 0.2,0 0.3,0.1 0.5,0.1 0.2,0.1 0.4,0.2 0.5,0.4 0.2,0.1 0.3,0.3 0.4,0.5 0.1,0.2 0.1,0.4 0.1,0.6 v 15 c 0,0.2 0,0.3 -0.1,0.6 -0.1,0.2 -0.2,0.4 -0.4,0.6 -0.2,0.1 -0.3,0.2 -0.5,0.3 -0.3,0.2 -0.5,0.2 -0.7,0.2 h -6.6 c -0.2,0 -0.4,0 -0.6,-0.2 -0.2,-0.1 -0.4,-0.3 -0.6,-0.5 -0.1,-0.1 -0.2,-0.3 -0.3,-0.5 -0.2,-0.2 -0.2,-0.4 -0.2,-0.7 v -14.8 c 0,-0.2 0,-0.4 0,-0.5 0.1,-0.2 0.2,-0.4 0.2,-0.5 0.1,-0.2 0.2,-0.3 0.3,-0.5 0.2,0 0.3,-0.1 0.4,-0.1 z"
         style="fill:url(#linearGradient12938);fill-opacity:1;stroke:none" />
      <path
         inkscape:connector-curvature="0"
         id="path18"
         d="m 236.54661,55.29995 c -0.5,0 -1,-0.1 -1.6,-0.1 h -24 c -0.5,0 -1,0.1 -1.5,0.1 -0.4,0 -0.9,0.2 -1.4,0.3 -0.3,0.2 -0.7,0.4 -1.2,0.7 -0.4,0.2 -0.8,0.6 -1.1,1 -0.3,0.4 -0.5,0.8 -0.8,1.3 -0.2,0.6 -0.5,1.2 -0.6,1.9 0,0.3 -0.1,0.8 -0.1,1.3 -0.1,0.4 -0.1,0.9 -0.1,1.5 v 14.6 c 0,0.4 0,0.9 0.1,1.2 0,0.4 0.1,0.7 0.1,1 0.1,0.5 0.3,1.1 0.5,1.5 0.2,0.5 0.5,0.9 0.7,1.3 0.4,0.4 0.7,0.7 1,1.1 0.4,0.3 0.9,0.5 1.3,0.8 0.5,0.2 1.1,0.4 1.6,0.5 0.6,0.2 1.3,0.2 1.9,0.2 h 23.6 c 0.6,0 1.1,0 1.7,-0.1 0.6,-0.1 1.1,-0.3 1.6,-0.4 0.3,-0.2 0.7,-0.4 1.1,-0.6 0.4,-0.3 0.7,-0.6 1,-0.9 0.3,-0.4 0.6,-0.7 0.8,-1.2 0.2,-0.4 0.4,-0.9 0.6,-1.5 0.1,-0.4 0.2,-0.9 0.2,-1.5 0,-0.5 0.1,-1 0.1,-1.7 v -14.3 c 0,-0.5 0,-1.1 -0.1,-1.5 0,-0.5 0,-1 -0.1,-1.4 -0.2,-0.7 -0.4,-1.3 -0.6,-1.9 -0.3,-0.5 -0.5,-0.9 -0.8,-1.3 -0.4,-0.4 -0.8,-0.7 -1.1,-0.9 -0.4,-0.3 -0.9,-0.5 -1.3,-0.7 -0.5,-0.1 -0.9,-0.3 -1.5,-0.3 z m -10,5.9 c 0.2,0 0.4,0.1 0.6,0.1 0.2,0.1 0.3,0.2 0.5,0.4 0.2,0.1 0.3,0.3 0.3,0.5 0.1,0.2 0.2,0.4 0.2,0.6 v 15 c 0,0.2 -0.1,0.3 -0.2,0.6 0,0.2 -0.2,0.4 -0.4,0.6 -0.1,0.1 -0.3,0.2 -0.5,0.3 -0.2,0.2 -0.5,0.2 -0.6,0.2 h -6.6 c -0.3,0 -0.4,0 -0.6,-0.2 -0.3,-0.1 -0.4,-0.3 -0.6,-0.5 -0.2,-0.1 -0.2,-0.3 -0.4,-0.5 -0.1,-0.2 -0.2,-0.4 -0.2,-0.7 v -14.8 c 0,-0.2 0,-0.4 0.1,-0.5 0.1,-0.2 0.1,-0.4 0.2,-0.5 0.1,-0.2 0.1,-0.3 0.3,-0.5 0.2,0 0.3,-0.1 0.3,-0.1 z"
         style="fill:url(#linearGradient12940);fill-opacity:1;stroke:none" />
      <path
         inkscape:connector-curvature="0"
         id="path20"
         d="m 164.64661,85.49995 h 9.9 l 10.9,-33 v 33 h 14.2 v -41.3 h -18.1 l -7.8,23.5 -7.3,-23.5 h -18.5 v 41.3 h 6.3 v -32.6 z"
         style="fill:url(#linearGradient12942);fill-opacity:1;stroke:none" />
      <path
         inkscape:connector-curvature="0"
         id="path22"
         d="m 123.9466,52.299946 0.4,-7.3 6,-4.2 -7.4,-0.3 -4,-6 -0.4,7.3 -6.1,4 7.4,0.4 z"
         style="fill:#97b3d5;stroke:none" />
      <path
         inkscape:connector-curvature="0"
         id="path24"
         d="m 100.44661,23.39995 -2.600002,-0.9 -0.9,-2.5 -0.8,2.6 -2.7,0.9 2.7,0.8 0.9,2.7 0.9,-2.7 z"
         style="fill:#97b3d5;stroke:none" />
      <path
         inkscape:connector-curvature="0"
         id="path26"
         d="m 86.346608,54.59995 -4.5,-2.1 2.3,4.3 -2.2,4.4 4.4,-2.2 4.4,2.1 -2.3,-4.3 2.2,-4.5 z"
         style="fill:#97b3d5;stroke:none" />
      <path
         inkscape:connector-curvature="0"
         id="path28"
         d="m 83.346608,92.09995 -1.3,-5.8 3.9,-4.5 -5.8,1.3 -4.5,-3.8 1.3,5.7 -3.9,4.6 5.8,-1.4 z"
         style="fill:#97b3d5;stroke:none" />
      <path
         inkscape:connector-curvature="0"
         id="path32"
         d="m 59.746608,41.99995 2.5,-2.3 3.4,0.6 -2.3,-2.5 0.6,-3.3 -2.5,2.3 -3.4,-0.7 2.3,2.5 z"
         style="fill:#97b3d5;stroke:none" />
      <path
         inkscape:connector-curvature="0"
         id="path34"
         d="m 479.94661,93.59995 c -0.2,-0.1 -0.2,-0.3 -0.4,-0.5 -0.1,-0.1 -0.3,-0.2 -0.4,-0.3 -0.2,-0.1 -0.4,-0.1 -0.6,-0.2 -0.3,0 -0.5,0 -0.7,0 h -7.9 c -0.2,0 -0.4,0 -0.5,0 -0.2,0.1 -0.4,0.1 -0.5,0.1 -0.2,0.1 -0.4,0.2 -0.5,0.4 -0.2,0 -0.2,0.2 -0.4,0.4 0,0.1 -0.1,0.3 -0.2,0.5 -0.1,0.1 -0.1,0.3 -0.1,0.6 0,0.1 0,0.2 -0.1,0.4 0,0.1 0,0.3 0,0.5 v 4.6 c 0,0.1 0,0.3 0,0.5 0.1,0.1 0.1,0.2 0.1,0.4 0,0.1 0,0.3 0.1,0.5 0.1,0.1 0.2,0.2 0.2,0.4 0.1,0.2 0.2,0.3 0.4,0.4 0.1,0.2 0.3,0.3 0.4,0.3 0.2,0.1 0.4,0.1 0.6,0.2 0.1,0 0.3,0 0.6,0 h 9.7 v -2 h -6.5 c -0.2,0 -0.2,0 -0.3,-0.1 -0.2,0 -0.2,-0.1 -0.4,-0.1 0,-0.1 -0.1,-0.3 -0.1,-0.4 -0.1,-0.1 -0.1,-0.1 -0.1,-0.2 v -1.2 h 7.9 v -3.6 c 0,-0.2 0,-0.5 0,-0.7 -0.1,-0.2 -0.1,-0.4 -0.2,-0.5 0,-0.2 -0.1,-0.3 -0.1,-0.4 z m -4.3,1.4 c 0.1,0.1 0.1,0.1 0.1,0.2 v 1.6 h -3.4 v -1.6 c 0,-0.1 0,-0.1 0.1,-0.2 0,0 0,-0.2 0.1,-0.2 0,-0.1 0.1,-0.1 0.2,-0.2 0,0 0,0 0.1,0 h 2.3 c 0.1,0 0.1,0 0.2,0 0.1,0.1 0.1,0.1 0.2,0.2 0,0 0,0.2 0.1,0.2 z"
         style="fill:#5b5bff;fill-opacity:1;stroke:none" />
      <path
         inkscape:connector-curvature="0"
         id="path36"
         d="m 428.84661,94.59995 c 0.1,0 0.2,0 0.2,0 h 2.1 c 0.1,0 0.1,0 0.2,0 0.1,0.1 0.2,0.1 0.2,0.2 0.1,0 0.1,0.1 0.2,0.2 0,0 0,0.1 0,0.2 v 7.6 h 4.8 v -6.7 c 0,-0.3 0,-0.5 -0.1,-0.7 0,-0.3 -0.1,-0.4 -0.2,-0.7 0,-0.1 0,-0.4 -0.1,-0.5 -0.1,-0.1 -0.2,-0.3 -0.3,-0.5 -0.3,-0.3 -0.5,-0.6 -0.8,-0.7 -0.5,-0.3 -0.9,-0.4 -1.3,-0.4 h -10 v 10.2 h 4.8 v -7.6 c 0,-0.1 0,-0.2 0,-0.2 0,-0.2 0.1,-0.2 0.2,-0.3 0,0 0,0 0.1,-0.1 z"
         style="fill:#5b5bff;fill-opacity:1;stroke:none" />
      <path
         inkscape:connector-curvature="0"
         id="path38"
         d="m 392.74661,88.89995 h -4.7 v 2.7 h 4.7 z"
         style="fill:#5b5bff;fill-opacity:1;stroke:none" />
      <path
         inkscape:connector-curvature="0"
         id="path40"
         d="m 392.74661,92.59995 h -4.7 v 10.2 h 4.7 z"
         style="fill:#5b5bff;fill-opacity:1;stroke:none" />
      <path
         inkscape:connector-curvature="0"
         id="path42"
         d="m 346.34661,92.49995 c -0.2,0 -0.4,0.1 -0.6,0.1 -0.2,0 -0.3,0.1 -0.5,0.1 -0.1,0.1 -0.3,0.3 -0.5,0.4 -0.1,0.1 -0.2,0.2 -0.3,0.4 -0.1,0.1 -0.2,0.3 -0.3,0.5 -0.1,0.1 -0.1,0.2 -0.2,0.5 0,0.1 -0.1,0.3 -0.1,0.5 -0.1,0.1 -0.1,0.2 -0.1,0.4 v 4.6 c 0,0.1 0,0.3 0.1,0.6 0.1,0.1 0.1,0.4 0.2,0.5 0,0.1 0.1,0.3 0.2,0.5 0,0.1 0.1,0.2 0.2,0.4 0.1,0.1 0.3,0.2 0.4,0.3 0.2,0.1 0.2,0.2 0.4,0.3 0.2,0 0.3,0.1 0.5,0.1 0.2,0.1 0.4,0.1 0.7,0.1 h 5.3 v 0.9 c 0,0.1 0,0.3 0,0.4 -0.1,0.1 -0.2,0.2 -0.2,0.3 -0.1,0.1 -0.2,0.2 -0.3,0.2 -0.2,0.1 -0.3,0.1 -0.5,0.1 h -6.2 v 2 h 9.5 c 0.2,0 0.4,-0.1 0.5,-0.1 0.2,0 0.4,-0.1 0.5,-0.2 0.1,-0.1 0.2,-0.2 0.4,-0.3 0.1,-0.1 0.1,-0.2 0.3,-0.4 0,-0.1 0.2,-0.2 0.3,-0.4 0,-0.1 0.1,-0.2 0.2,-0.4 0,-0.2 0,-0.3 0.1,-0.5 0.1,-0.2 0.1,-0.3 0.1,-0.6 v -11.3 z m 5.3,2.5 c 0.1,0.1 0.1,0.1 0.1,0.2 v 5.1 c 0,0 0,0.2 -0.1,0.2 0,0.1 -0.1,0.1 -0.1,0.1 0,0.1 -0.1,0.1 -0.1,0.2 -0.1,0 -0.2,0 -0.2,0 h -2.2 c 0,0 -0.1,0 -0.1,0 -0.2,-0.1 -0.2,-0.1 -0.2,-0.2 -0.1,0 -0.2,-0.1 -0.2,-0.1 0,-0.1 0,-0.2 0,-0.3 v -5 c 0,-0.1 0,-0.1 0,-0.2 0,0 0,-0.2 0,-0.2 0.1,-0.1 0.1,-0.1 0.2,-0.2 0,0 0,0 0.1,0 h 2.3 c 0.1,0 0.1,0 0.2,0 0.1,0.1 0.2,0.1 0.2,0.2 0,0 0,0.2 0.1,0.2 z"
         style="fill:#5b5bff;fill-opacity:1;stroke:none" />
      <path
         inkscape:connector-curvature="0"
         id="path44"
         d="m 312.54661,102.79995 v -6.7 c 0,-0.3 0,-0.5 0,-0.7 0,-0.3 -0.1,-0.4 -0.1,-0.7 -0.1,-0.1 -0.2,-0.4 -0.2,-0.5 -0.1,-0.1 -0.2,-0.3 -0.3,-0.5 -0.2,-0.3 -0.5,-0.6 -0.9,-0.7 -0.3,-0.3 -0.8,-0.4 -1.3,-0.4 h -9.9 v 10.2 h 4.7 v -7.6 c 0,-0.1 0,-0.2 0.1,-0.2 0.1,-0.2 0.1,-0.2 0.1,-0.3 0.1,0 0.2,0 0.2,-0.1 0.1,0 0.2,0 0.3,0 h 2 c 0,0 0.2,0 0.2,0 0.1,0.1 0.2,0.1 0.3,0.2 0,0 0,0.1 0,0.2 0.1,0 0.1,0.1 0.1,0.2 v 7.6 z"
         style="fill:#5b5bff;fill-opacity:1;stroke:none" />
      <path
         inkscape:connector-curvature="0"
         id="path46"
         d="m 257.14661,92.69995 c -0.1,0.1 -0.3,0.2 -0.4,0.4 -0.2,0 -0.3,0.2 -0.4,0.4 -0.1,0.1 -0.2,0.3 -0.3,0.5 0,0.1 0,0.3 -0.1,0.6 0,0.1 0,0.2 0,0.4 0,0.1 0,0.3 0,0.5 v 4.6 c 0,0.1 0,0.3 0,0.5 0,0.1 0,0.2 0,0.4 0.1,0.1 0.1,0.3 0.1,0.5 0.1,0.1 0.2,0.2 0.2,0.4 0.2,0.2 0.3,0.3 0.4,0.4 0.1,0.2 0.3,0.3 0.4,0.3 0.2,0.1 0.4,0.1 0.6,0.2 0.2,0 0.4,0 0.6,0 h 9.8 v -2 h -6.6 c -0.1,0 -0.2,0 -0.3,-0.1 -0.1,0 -0.2,-0.1 -0.3,-0.1 -0.1,-0.1 -0.1,-0.3 -0.2,-0.4 -0.1,-0.1 -0.1,-0.1 -0.1,-0.2 v -1.2 h 8 v -3.6 c 0,-0.2 0,-0.5 -0.1,-0.7 0,-0.2 0,-0.4 -0.1,-0.5 -0.1,-0.2 -0.1,-0.3 -0.2,-0.4 -0.1,-0.1 -0.2,-0.3 -0.4,-0.5 -0.1,-0.1 -0.2,-0.2 -0.3,-0.3 -0.2,-0.1 -0.4,-0.1 -0.7,-0.2 -0.2,0 -0.5,0 -0.7,0 h -7.8 c -0.2,0 -0.4,0 -0.6,0 -0.1,0.1 -0.4,0.1 -0.5,0.1 z m 3.8,1.9 c 0.1,0 0.1,0 0.1,0 h 2.4 c 0,0 0.1,0 0.1,0 0.1,0.1 0.2,0.1 0.2,0.2 0,0 0.1,0.2 0.2,0.2 0,0.1 0,0.1 0,0.2 v 1.6 h -3.4 v -1.6 c 0,-0.1 0,-0.1 0.1,-0.2 0.1,0 0.1,-0.2 0.1,-0.2 0,-0.1 0.2,-0.1 0.2,-0.2 z"
         style="fill:#5b5bff;fill-opacity:1;stroke:none" />
    </g>
  </g>
</svg>
