<?xml version="1.0" encoding="UTF-8" standalone="no"?>
<!-- Created with sK1/UniConvertor (http://sk1project.org/) -->

<svg
   width="627.18329"
   height="188.6962"
   viewBox="0 0 501.74661 150.95695"
   id="svg2"
   version="1.1"
   inkscape:version="1.1 (c68e22c387, 2021-05-23)"
   sodipodi:docname="Moondust 1 ZH.svg"
   style="fill-rule:evenodd"
   inkscape:export-filename="D:/Moondust_logo_full-500 ZH.png"
   inkscape:export-xdpi="76.313141"
   inkscape:export-ydpi="76.313141"
   xmlns:inkscape="http://www.inkscape.org/namespaces/inkscape"
   xmlns:sodipodi="http://sodipodi.sourceforge.net/DTD/sodipodi-0.dtd"
   xmlns="http://www.w3.org/2000/svg"
   xmlns:svg="http://www.w3.org/2000/svg"
   xmlns:rdf="http://www.w3.org/1999/02/22-rdf-syntax-ns#"
   xmlns:cc="http://creativecommons.org/ns#"
   xmlns:dc="http://purl.org/dc/elements/1.1/">
  <metadata
     id="metadata52">
    <rdf:RDF>
      <cc:Work
         rdf:about="">
        <dc:format>image/svg+xml</dc:format>
        <dc:type
           rdf:resource="http://purl.org/dc/dcmitype/StillImage" />
      </cc:Work>
    </rdf:RDF>
  </metadata>
  <defs
     id="defs50" />
  <sodipodi:namedview
     pagecolor="#ffffff"
     bordercolor="#666666"
     borderopacity="1"
     objecttolerance="10"
     gridtolerance="10"
     guidetolerance="10"
     inkscape:pageopacity="0"
     inkscape:pageshadow="2"
     inkscape:window-width="1280"
     inkscape:window-height="971"
     id="namedview48"
     showgrid="false"
     fit-margin-top="20"
     fit-margin-right="20"
     fit-margin-bottom="20"
     fit-margin-left="20"
     inkscape:zoom="1.7940586"
     inkscape:cx="153.56243"
     inkscape:cy="174.46476"
     inkscape:window-x="-8"
     inkscape:window-y="-8"
     inkscape:window-maximized="1"
     inkscape:current-layer="svg2"
     units="px"
     inkscape:pagecheckerboard="0" />
  <g
     id="g4175">
    <path
       style="fill:#97b3d5;stroke:none"
       d="m 123.94661,52.29995 0.4,-7.3 6,-4.2 -7.4,-0.3 -4,-6 -0.4,7.3 -6.1,4 7.4,0.4 4.1,6.1 z"
       id="path22"
       inkscape:connector-curvature="0" />
    <path
       style="fill:#97b3d5;stroke:none"
       d="m 100.44661,23.39995 -2.600002,-0.9 -0.9,-2.5 -0.8,2.6 -2.7,0.9 2.7,0.8 0.9,2.7 0.9,-2.7 2.500002,-0.9 z"
       id="path24"
       inkscape:connector-curvature="0" />
    <path
       style="fill:#97b3d5;stroke:none"
       d="m 86.346608,54.59995 -4.5,-2.1 2.3,4.3 -2.2,4.4 4.4,-2.2 4.4,2.1 -2.3,-4.3 2.2,-4.5 -4.3,2.3 z"
       id="path26"
       inkscape:connector-curvature="0" />
    <path
       style="fill:#97b3d5;stroke:none"
       d="m 83.346608,92.09995 -1.3,-5.8 3.9,-4.5 -5.8,1.3 -4.5,-3.8 1.3,5.7 -3.9,4.6 5.8,-1.4 4.5,3.9 z"
       id="path28"
       inkscape:connector-curvature="0" />
    <path
       style="fill:#97b3d5;stroke:none"
       d="m 131.24661,89.49995 1.9,-20.5 -13.9,15.1 -20.500002,-2 15.200002,14 -1,11 c -7.3,2 -15.000002,2.5 -23.200002,1.1 -14.6,-2.2 -26.2,-9.4 -34.8,-21.3 -8.8,-11.9 -11.9,-25.2 -9.7,-39.8 1.5,-9.5 5.1,-17.7 10.8,-24.6 -4.5,1.7 -8.8,4 -12.9,7 -12.5,9.1 -19.9,21.3 -22.4,36.5 -2.4,15.3 1,29.2 10,41.8 9.2,12.5 21.4,19.9 36.6,22.4 15.3,2.4 29.2,-0.9 41.700002,-10 7,-5.1 12.4,-11.1 16.3,-18.2 l 0.6,-0.7 20.4,2 -15.1,-13.8 z"
       id="path30"
       inkscape:connector-curvature="0" />
    <path
       style="fill:#97b3d5;stroke:none"
       d="m 59.746608,41.99995 2.5,-2.3 3.4,0.6 -2.3,-2.5 0.6,-3.3 -2.5,2.3 -3.4,-0.7 2.3,2.5 -0.6,3.4 z"
       id="path32"
       inkscape:connector-curvature="0" />
  </g>
  <text
     xml:space="preserve"
     style="font-style:normal;font-variant:normal;font-weight:900;font-stretch:normal;font-size:74.6667px;line-height:1.25;font-family:JingNanYuanMoT;-inkscape-font-specification:'JingNanYuanMoT Heavy';letter-spacing:14.4px;fill:#97b3d5;fill-opacity:1;stroke-width:0.8"
     x="147.571"
     y="99.749397"
     id="text5447"><tspan
       sodipodi:role="line"
       id="tspan5445"
       style="font-style:normal;font-variant:normal;font-weight:900;font-stretch:normal;font-size:74.6667px;font-family:JingNanYuanMoT;-inkscape-font-specification:'JingNanYuanMoT Heavy';fill:#97b3d5;fill-opacity:1;stroke-width:0.8"
       x="147.571"
       y="99.749397">月尘引擎</tspan></text>
</svg>
