<?xml version="1.0" encoding="UTF-8" standalone="no"?>
<!-- Created with Inkscape (http://www.inkscape.org/) -->

<svg
   xmlns:dc="http://purl.org/dc/elements/1.1/"
   xmlns:cc="http://creativecommons.org/ns#"
   xmlns:rdf="http://www.w3.org/1999/02/22-rdf-syntax-ns#"
   xmlns:svg="http://www.w3.org/2000/svg"
   xmlns="http://www.w3.org/2000/svg"
   xmlns:xlink="http://www.w3.org/1999/xlink"
   xmlns:sodipodi="http://sodipodi.sourceforge.net/DTD/sodipodi-0.dtd"
   xmlns:inkscape="http://www.inkscape.org/namespaces/inkscape"
   width="210.57611mm"
   height="95.886429mm"
   viewBox="0 0 210.57611 95.886432"
   version="1.1"
   id="svg8"
   inkscape:version="0.92.5 (2060ec1f9f, 2020-04-08)"
   sodipodi:docname="WohlSoftNew-textonly.svg"
   inkscape:export-filename="/home/vitaly/_git_repos/Moondust-Concepts/General/WohlSoftNew-textonly.png"
   inkscape:export-xdpi="136.22725"
   inkscape:export-ydpi="136.22725">
  <defs
     id="defs2">
    <linearGradient
       inkscape:collect="always"
       id="linearGradient977">
      <stop
         style="stop-color:#ff9c2b;stop-opacity:1;"
         offset="0"
         id="stop973" />
      <stop
         style="stop-color:#ffffff;stop-opacity:1"
         offset="1"
         id="stop975" />
    </linearGradient>
    <linearGradient
       inkscape:collect="always"
       xlink:href="#linearGradient977"
       id="linearGradient979"
       x1="106.30579"
       y1="184.42744"
       x2="89.958328"
       y2="185.56136"
       gradientUnits="userSpaceOnUse"
       gradientTransform="translate(-3.9248642,-52.713297)" />
    <filter
       inkscape:collect="always"
       style="color-interpolation-filters:sRGB"
       id="filter2612"
       x="-0.27153081"
       width="1.5430616"
       y="-0.13179824"
       height="1.2635965">
      <feGaussianBlur
         inkscape:collect="always"
         stdDeviation="2.0774223"
         id="feGaussianBlur2614" />
    </filter>
    <filter
       inkscape:collect="always"
       style="color-interpolation-filters:sRGB"
       id="filter2616"
       x="-0.044765811"
       width="1.0895315"
       y="-0.082246393"
       height="1.1644928">
      <feGaussianBlur
         inkscape:collect="always"
         stdDeviation="2.0774223"
         id="feGaussianBlur2618" />
    </filter>
    <filter
       inkscape:collect="always"
       style="color-interpolation-filters:sRGB"
       id="filter2620"
       x="-0.20797037"
       width="1.4159406"
       y="-0.21847573"
       height="1.4369515">
      <feGaussianBlur
         inkscape:collect="always"
         stdDeviation="2.0774223"
         id="feGaussianBlur2622" />
    </filter>
    <filter
       inkscape:collect="always"
       style="color-interpolation-filters:sRGB"
       id="filter2624"
       x="-0.14432193"
       width="1.288644"
       y="-0.10626309"
       height="1.2125262">
      <feGaussianBlur
         inkscape:collect="always"
         stdDeviation="2.0774223"
         id="feGaussianBlur2626" />
    </filter>
    <filter
       inkscape:collect="always"
       style="color-interpolation-filters:sRGB"
       id="filter2628"
       x="-0.24813342"
       width="1.4962668"
       y="-0.11004846"
       height="1.2200969">
      <feGaussianBlur
         inkscape:collect="always"
         stdDeviation="2.0774223"
         id="feGaussianBlur2630" />
    </filter>
    <filter
       inkscape:collect="always"
       style="color-interpolation-filters:sRGB"
       id="filter2632"
       x="-0.18113673"
       width="1.3622735"
       y="-0.10843216"
       height="1.2168643">
      <feGaussianBlur
         inkscape:collect="always"
         stdDeviation="2.0774223"
         id="feGaussianBlur2634" />
    </filter>
    <filter
       inkscape:collect="always"
       style="color-interpolation-filters:sRGB"
       id="filter2636"
       x="-0.079884015"
       width="1.159768"
       y="-0.10350693"
       height="1.2070138">
      <feGaussianBlur
         inkscape:collect="always"
         stdDeviation="2.0774223"
         id="feGaussianBlur2638" />
    </filter>
    <filter
       inkscape:collect="always"
       style="color-interpolation-filters:sRGB"
       id="filter2640"
       x="-0.2079704"
       width="1.4159408"
       y="-0.21847564"
       height="1.4369513">
      <feGaussianBlur
         inkscape:collect="always"
         stdDeviation="2.0774223"
         id="feGaussianBlur2642" />
    </filter>
  </defs>
  <sodipodi:namedview
     id="base"
     pagecolor="#ffffff"
     bordercolor="#666666"
     borderopacity="1.0"
     inkscape:pageopacity="0.0"
     inkscape:pageshadow="2"
     inkscape:zoom="0.98994949"
     inkscape:cx="274.27269"
     inkscape:cy="132.71363"
     inkscape:document-units="mm"
     inkscape:current-layer="layer3"
     showgrid="false"
     inkscape:window-width="1920"
     inkscape:window-height="1006"
     inkscape:window-x="0"
     inkscape:window-y="26"
     inkscape:window-maximized="1"
     showguides="false"
     inkscape:guide-bbox="true"
     fit-margin-left="10"
     fit-margin-top="10"
     fit-margin-right="10"
     fit-margin-bottom="10">
    <inkscape:grid
       type="xygrid"
       id="grid7354"
       originx="-0.49740331"
       originy="-138.60002" />
    <sodipodi:guide
       position="-5.7890738,36.02499"
       orientation="0,1"
       id="guide7356"
       inkscape:locked="false" />
  </sodipodi:namedview>
  <metadata
     id="metadata5">
    <rdf:RDF>
      <cc:Work
         rdf:about="">
        <dc:format>image/svg+xml</dc:format>
        <dc:type
           rdf:resource="http://purl.org/dc/dcmitype/StillImage" />
        <dc:title />
      </cc:Work>
    </rdf:RDF>
  </metadata>
  <g
     inkscape:groupmode="layer"
     id="layer6"
     inkscape:label="Чёрный фон"
     style="display:none">
    <rect
       style="opacity:1;fill:#030000;fill-opacity:0.98453603;fill-rule:evenodd;stroke:none;stroke-width:0.30000001;stroke-linecap:butt;stroke-linejoin:round;stroke-miterlimit:4;stroke-dasharray:none;stroke-dashoffset:0;stroke-opacity:1;paint-order:normal"
       id="rect863"
       width="211.66666"
       height="96.761909"
       x="-0.56696427"
       y="-0.30851164"
       ry="0.65498132" />
  </g>
  <g
     inkscape:label="Наводка"
     inkscape:groupmode="layer"
     id="layer1"
     style="display:none;opacity:0.21700003"
     sodipodi:insensitive="true"
     transform="translate(-0.49740632,-62.513566)">
    <image
       sodipodi:absref="/home/vitaly/_git_repos/Moondust-Concepts/General/240.png"
       xlink:href="240.png"
       width="209.87508"
       height="209.87508"
       preserveAspectRatio="none"
       id="image832"
       x="-1.4078215"
       y="-59.058575" />
  </g>
  <g
     inkscape:groupmode="layer"
     id="layer4"
     inkscape:label="Рисованная надпись (тень)"
     transform="translate(-0.49740632,-62.513566)">
    <path
       inkscape:connector-curvature="0"
       style="display:inline;opacity:0.49500002;fill:#000000;fill-opacity:0.98453603;fill-rule:evenodd;stroke:none;stroke-width:1.06500006;stroke-linecap:butt;stroke-linejoin:miter;stroke-miterlimit:4;stroke-dasharray:none;stroke-opacity:1;filter:url(#filter2640)"
       d="m 61.295729,103.90628 c -1.83101,1.26456 -3.453792,2.95986 -4.519179,4.91348 -1.311267,2.4045 -2.697551,5.28459 -2.071709,7.95093 0.674598,2.87406 2.988236,5.8241 5.813081,6.68177 3.820613,1.16 8.357519,-0.75501 11.559503,-3.14038 3.251298,-2.4221 6.045629,-6.29646 6.414596,-10.33396 0.237106,-2.59457 -0.878822,-5.57449 -2.850177,-7.27796 -1.861341,-1.6084 -4.736734,-1.85521 -7.189438,-1.66606 -2.562894,0.19765 -5.041574,1.41142 -7.156677,2.87218 z m 4.515707,1.03973 c 0.94216,-0.23216 2.02143,-0.057 2.885538,0.38441 1.170376,0.59792 2.145308,1.676 2.712275,2.86169 0.866622,1.81234 1.329159,4.03457 0.802019,5.97306 -0.51915,1.90911 -1.903929,3.76134 -3.660095,4.67243 -1.192237,0.61853 -2.780964,0.71311 -4.024191,0.20479 -1.40058,-0.57266 -2.499982,-1.94053 -3.073199,-3.34088 -0.506532,-1.23744 -0.336981,-2.68748 -0.133842,-4.00906 0.255148,-1.65993 0.660561,-3.41231 1.672619,-4.75253 0.693576,-0.91847 1.701374,-1.71854 2.818876,-1.99391 z"
       id="path841-1"
       sodipodi:nodetypes="aaaaaaaaaaaaaaaaaaa" />
    <path
       style="display:inline;opacity:0.49500002;fill:#000000;fill-opacity:0.98453603;fill-rule:evenodd;stroke:none;stroke-width:1.06500006;stroke-linecap:butt;stroke-linejoin:miter;stroke-miterlimit:4;stroke-dasharray:none;stroke-opacity:1;filter:url(#filter2636)"
       d="m 15.48322,95.533613 6.614921,-3.608137 c 0,0 2.458166,-5.60669 4.81085,-7.34991 2.106648,-1.56092 4.974871,-2.696171 7.550365,-2.204981 1.995593,0.3806 3.998832,1.87956 4.810852,3.741781 1.224293,2.80769 0.04148,6.20934 -0.801809,9.15398 -1.609748,5.621014 -5.304363,10.421724 -7.951269,15.635264 -1.650356,3.25066 -3.49272,6.41125 -4.944486,9.75533 -0.594846,1.3702 -1.336346,3.60814 -1.5368,4.2095 -0.200451,0.60135 7.283095,-2.93997 7.283095,-2.93997 0,0 1.441556,-3.29908 2.405425,-4.81085 3.502504,-5.49346 12.160764,-15.30118 12.160764,-15.30118 l -7.416729,23.8538 6.949009,-2.53905 c 0,0 3.752739,-9.69644 6.147197,-14.29893 4.204869,-8.08237 8.543055,-16.245154 14.365737,-23.252435 0.867402,-1.043869 1.670434,-2.54259 3.013499,-2.73812 0.608994,-0.0887 1.298352,0.30519 1.663718,0.800411 0.802254,1.087379 0.559372,2.6584 0.601358,4.00905 0.01598,0.51395 -0.133635,1.5368 -0.133635,1.5368 l 6.614922,-3.34087 c 0,0 0.354692,-2.33676 0.133633,-3.474511 -0.321334,-1.65385 -0.614596,-3.76401 -2.071338,-4.6104 -1.006028,-0.58452 -2.379351,-0.0588 -3.474504,0.33409 -3.413066,1.22458 -6.363131,3.61303 -9.020346,6.08038 -3.033351,2.816611 -5.311477,6.363351 -7.684001,9.755341 -1.335582,1.909477 -3.674954,5.946737 -3.674954,5.946737 0,0 2.385912,-3.86414 1.524641,-5.594477 -0.187593,-0.37688 -0.753674,-0.51347 -1.172374,-0.46968 -3.098493,0.32404 -5.416418,3.153222 -7.768998,5.19552 -2.596562,2.254124 -6.882191,7.684014 -6.882191,7.684014 0,0 3.868587,-5.71072 5.14494,-8.886715 1.820957,-4.531139 4.943147,-9.574809 3.474503,-14.232089 -0.802151,-2.543741 -3.445307,-4.558801 -6.013565,-5.278581 -3.222633,-0.90318 -6.847857,0.33986 -9.888971,1.73726 -4.687654,2.153981 -8.733366,5.79716 -11.960312,9.822151 -1.327109,1.65531 -2.873147,5.679477 -2.873147,5.679477 z"
       id="path839-2"
       inkscape:connector-curvature="0"
       sodipodi:nodetypes="ccaaaaaascacccaaaaaccaaaaacaaacaaaaac" />
    <path
       style="display:inline;opacity:0.49500002;vector-effect:none;fill:#000000;fill-opacity:0.98453603;fill-rule:evenodd;stroke:none;stroke-width:1.06500006;stroke-linecap:butt;stroke-linejoin:miter;stroke-miterlimit:4;stroke-dasharray:none;stroke-dashoffset:0;stroke-opacity:1;filter:url(#filter2632)"
       d="m 70.880201,124.8557 c 0,0 3.938043,-2.13301 5.28668,-3.84438 4.06568,-5.15916 5.355232,-12.01152 7.542257,-18.20536 2.187541,-6.195303 3.45707,-12.68564 5.562547,-18.90932 0.15194,-0.449121 0.236792,-0.94014 0.509485,-1.327991 0.248512,-0.35347 0.6205,-0.60936 0.981715,-0.84647 1.559938,-1.02398 5.040199,-2.43593 5.040199,-2.43593 0,0 -3.331319,13.592401 -5.479024,20.245644 -0.562959,1.743977 -1.937705,5.144957 -1.937705,5.144957 0,0 5.29395,-4.36338 7.650588,-2.97337 1.074401,0.63369 0.661871,2.4714 0.501129,3.70836 -0.434919,3.347 -2.991707,6.09704 -3.875407,9.35444 -0.341432,1.25854 -1.610511,3.13868 -0.53453,3.8754 1.89207,1.2955 5.144929,-3.27405 6.013549,-3.34087 0.868632,-0.0668 -0.62752,2.05066 -1.33634,2.80634 -2.28508,2.43615 -5.42494,4.59492 -8.753076,4.87766 -0.690348,0.0587 -1.600123,-0.0991 -1.960287,-0.69098 -0.950352,-1.56173 0.285546,-3.66573 0.757576,-5.4319 0.714552,-2.67359 2.528837,-4.99239 3.108338,-7.69847 0.108366,-0.50603 0.31124,-1.45847 0.05926,-1.55137 -0.213773,-0.0788 -0.720704,0.6595 -1.030137,1.03535 -3.702709,4.49752 -5.264113,10.81012 -9.791242,14.47657 -1.461728,1.18383 -3.363989,1.87743 -5.229122,2.12113 -1.028234,0.13435 -3.086452,-0.38944 -3.086452,-0.38944 z"
       id="path899-7"
       inkscape:connector-curvature="0"
       sodipodi:nodetypes="caaaaacacaaaacaaaaasaaac" />
    <path
       style="display:inline;opacity:0.49500002;vector-effect:none;fill:#000000;fill-opacity:0.98453603;fill-rule:evenodd;stroke:none;stroke-width:1.06500006;stroke-linecap:butt;stroke-linejoin:miter;stroke-miterlimit:4;stroke-dasharray:none;stroke-dashoffset:0;stroke-opacity:1;filter:url(#filter2628)"
       d="m 117.59091,78.489812 c -2.73952,0.93544 -5.37332,2.50229 -7.14947,4.74403 -1.2364,1.56051 -2.05835,4.295891 -2.90599,6.518851 -1.18659,3.11187 -2.02162,6.346657 -3.04075,9.517303 -1.48288,4.613474 -3.70136,9.963894 -4.990397,15.108704 -0.713134,2.8463 -3.009816,6.15312 -1.506401,8.67298 0.38568,0.64644 1.395604,0.81802 2.141508,0.71669 3.51622,-0.4777 6.59802,-3.18903 8.82799,-5.94933 1.07085,-1.32553 1.41584,-2.83959 1.90213,-4.74506 -1.04173,0.3052 -1.0582,0.33586 -1.56398,0.56177 -1.05014,0.46906 -2.12734,0.93456 -3.03573,1.63998 -1.02446,0.79556 -2.63969,2.85901 -2.63969,2.85901 0,0 6.3436,-19.666551 6.94495,-21.13652 0.60136,-1.469977 2.80489,-8.619607 4.47677,-12.828937 0.76548,-1.92728 2.53906,-5.679471 2.53906,-5.679471 z"
       id="path903-0"
       inkscape:connector-curvature="0"
       sodipodi:nodetypes="csasaaaacaaccac" />
    <path
       style="display:inline;opacity:0.49500002;vector-effect:none;fill:#000000;fill-opacity:0.98453603;fill-rule:evenodd;stroke:none;stroke-width:0.96499997;stroke-linecap:butt;stroke-linejoin:miter;stroke-miterlimit:4;stroke-dasharray:none;stroke-dashoffset:0;stroke-opacity:1;filter:url(#filter2624)"
       d="m 125.20209,83.023179 c 1.64663,-1.6488 3.65724,-3.241361 5.94676,-3.674961 3.93035,-0.74435 8.46975,-0.0643 11.80849,2.138981 1.47094,0.970699 2.86465,2.65099 2.91229,4.41272 0.0161,0.59528 -0.46325,1.13944 -0.90203,1.54204 -1.00058,0.91808 -2.33904,1.5334 -3.67999,1.74753 -0.54534,0.0871 -1.20769,0.12998 -1.64346,-0.20925 -1.08174,-0.8421 -0.46274,-2.93636 -1.50437,-3.827591 -2.09145,-1.78947 -5.68178,-3.1812 -8.06001,-1.795409 -3.62815,2.11411 -4.50644,7.93111 -3.67971,12.048087 0.46257,2.303499 2.47906,4.228157 4.50167,5.423664 1.35128,0.79871 3.33588,-0.008 4.62464,0.88762 0.93131,0.64757 1.64278,1.78178 1.76492,2.90951 0.57218,5.28315 -1.57287,11.16236 -5.15836,15.08452 -3.36928,3.68564 -8.78726,7.07462 -13.68414,6.09659 -3.38969,-0.67701 -7.04671,-4.07921 -7.12455,-7.53497 -0.0473,-2.09902 2.35425,-3.62636 4.11697,-4.76696 0.82714,-0.53521 2.0495,-1.44426 2.83203,-0.8457 1.68513,1.28898 -1.27406,4.55636 -0.1613,6.36271 1.04032,1.68876 3.40869,2.75491 5.3806,2.54103 2.34949,-0.25482 4.28162,-2.37888 5.61267,-4.33166 2.00073,-2.93528 4.07,-6.85306 2.97635,-10.23281 -0.2958,-0.91412 -1.37183,-1.44037 -2.27379,-1.77139 -1.50674,-0.55298 -3.32339,0.40245 -4.81085,-0.20047 -1.79816,-0.72886 -3.42369,-2.16682 -4.34313,-3.8754 -1.38665,-2.576781 -1.86103,-5.820484 -1.26953,-8.686261 0.74729,-3.62056 3.20547,-6.82636 5.81783,-9.44217 z"
       id="path905-9"
       inkscape:connector-curvature="0"
       sodipodi:nodetypes="aaaaaaaaaaaaaaaaaaaaaaaaaaa" />
    <path
       inkscape:connector-curvature="0"
       style="display:inline;opacity:0.49500002;fill:#000000;fill-opacity:0.98453603;fill-rule:evenodd;stroke:none;stroke-width:0.96499997;stroke-linecap:butt;stroke-linejoin:miter;stroke-miterlimit:4;stroke-dasharray:none;stroke-opacity:1;filter:url(#filter2620)"
       d="m 145.99878,103.13794 c -1.83101,1.26456 -3.45379,2.95986 -4.51918,4.91348 -1.31127,2.4045 -2.69755,5.28459 -2.07171,7.95093 0.6746,2.87406 2.98824,5.8241 5.81308,6.68177 3.82062,1.16 8.35752,-0.75501 11.55951,-3.14038 3.25129,-2.4221 6.04563,-6.29646 6.41459,-10.33396 0.23712,-2.59457 -0.87882,-5.57449 -2.85018,-7.27796 -1.86134,-1.60839 -4.73673,-1.8552 -7.18943,-1.66605 -2.5629,0.19765 -5.04158,1.41141 -7.15668,2.87217 z m 4.51571,1.03973 c 0.94216,-0.23216 2.02143,-0.057 2.88553,0.38441 1.17038,0.59792 2.14531,1.676 2.71228,2.86169 0.86662,1.81234 1.32916,4.03457 0.80202,5.97306 -0.51915,1.90911 -1.90393,3.76134 -3.6601,4.67243 -1.19223,0.61853 -2.78096,0.71311 -4.02419,0.20479 -1.40058,-0.57266 -2.49998,-1.94053 -3.0732,-3.34088 -0.50653,-1.23744 -0.33698,-2.68748 -0.13384,-4.00906 0.25515,-1.65993 0.66056,-3.41231 1.67262,-4.75253 0.69358,-0.91847 1.70138,-1.71854 2.81888,-1.99391 z"
       id="path841-3-3"
       sodipodi:nodetypes="aaaaaaaaaaaaaaaaaaa" />
    <path
       style="display:inline;opacity:0.49500002;vector-effect:none;fill:#000000;fill-opacity:0.98453603;fill-rule:evenodd;stroke:none;stroke-width:0;stroke-linecap:butt;stroke-linejoin:miter;stroke-miterlimit:4;stroke-dasharray:none;stroke-dashoffset:0;stroke-opacity:1;filter:url(#filter2616)"
       d="m 183.82646,82.910949 c -2.22742,0.385958 -4.28533,1.706599 -5.97483,3.208591 -1.55106,1.378912 -2.62327,3.254528 -3.56774,5.10254 -0.96131,1.880946 -1.63645,4.463987 -2.08192,5.985337 -0.62065,-0.0571 -1.82385,-0.11698 -2.62555,-0.50652 -0.28107,-0.13657 -0.40371,-0.544894 -0.70848,-0.61392 -0.54957,-0.124469 -1.12835,0.191649 -1.62987,0.44855 -1.57508,0.80684 -3.91357,1.575145 -4.13412,3.331046 -0.01,0.0781 0.0766,0.144627 0.1416,0.189127 0.43186,0.29593 1.00324,0.30184 1.51205,0.42531 2.13594,0.51834 4.8684,1.13448 6.45979,1.32255 -0.58434,3.0866 -1.13835,11.52812 -4.0286,16.33362 -2.88581,4.79812 -7.4002,8.93248 -12.52082,11.19724 -9.78849,4.32927 -21.28434,4.32875 -31.93862,3.30729 -7.2408,-0.6942 -13.61557,-6.6285 -20.88348,-6.33088 -6.767535,0.27713 -13.46963,3.41519 -18.898602,7.46518 -3.272742,2.44146 -7.559744,9.63817 -7.559744,9.63817 0,0 5.518433,-3.22375 8.575186,-4.00286 5.409499,-1.37878 11.133505,-1.1604 16.71475,-1.04438 7.10394,0.14767 14.12792,2.88675 21.2013,2.21227 13.62911,-1.29959 27.35367,-5.23495 39.30922,-11.90625 4.11165,-2.29433 8.16274,-5.31638 10.58371,-9.35476 3.03557,-5.06359 3.2268,-12.61487 4.09178,-17.2322 1.24045,-0.10405 2.80448,-0.42863 4.08042,-1.00713 1.67919,-0.76134 4.53565,-3.165698 4.53565,-3.165698 0,0 -2.03854,0.38276 -3.07114,0.4253 -1.58712,0.0654 -3.56374,-0.12958 -4.75812,-0.26317 0.68696,-2.435162 0.93248,-4.12953 1.75517,-6.067605 0.4824,-1.136442 1.06487,-2.254525 1.84449,-3.211829 0.2058,-0.252723 0.45326,-0.817909 0.73173,-0.64854 0.6794,0.41323 -0.58246,1.517831 -0.58394,2.31303 -5.3e-4,0.26429 -0.048,0.657058 0.19121,0.76947 1.24915,0.587065 2.66614,-0.91766 3.73103,-1.79576 1.05002,-0.865835 2.35917,-1.915614 2.43913,-3.27422 0.0695,-1.180419 -0.79428,-2.40713 -1.77095,-3.073711 -0.32346,-0.220758 -0.86486,-0.430618 -1.16169,-0.175189 0,0 0,10e-7 0,10e-7 z"
       id="path924-6"
       inkscape:connector-curvature="0"
       sodipodi:nodetypes="caacaaaacacaaaaacaaaaacacacaaaaaaaaac" />
    <path
       style="display:inline;opacity:0.49500002;vector-effect:none;fill:#000000;fill-opacity:0.98453603;fill-rule:evenodd;stroke:none;stroke-width:0.96499997;stroke-linecap:butt;stroke-linejoin:miter;stroke-miterlimit:4;stroke-dasharray:none;stroke-dashoffset:0;stroke-opacity:1;filter:url(#filter2612)"
       d="m 199.35533,84.305087 c -0.67571,-0.0258 -1.29889,0.396461 -1.90636,0.693491 -1.01591,0.49676 -2.11167,0.96801 -2.87321,1.80403 -1.45767,1.60023 -2.01983,3.83145 -2.92643,5.79706 -0.85532,1.854407 -1.6037,3.844836 -2.36782,5.650387 -0.63847,-0.0216 -1.80003,0.129147 -2.62893,0.450727 -0.99728,0.386897 -1.90366,1.019761 -2.70113,1.732708 -0.68459,0.61204 -2.07386,1.28417 -1.73684,2.13837 0.23926,0.60641 1.28996,0.1906 1.93735,0.26717 1.03726,0.12268 2.32531,0.10075 3.11831,0.30789 -0.69603,1.74099 -2.09612,4.93743 -3.05124,7.4429 -0.93563,2.45436 -2.61474,4.80391 -2.62309,7.43055 -0.004,1.24415 0.16235,2.87235 1.22009,3.52743 2.13834,1.32436 5.2251,0.13884 7.48325,-0.96893 2.26668,-1.11194 4.19561,-3.10815 5.36661,-5.34489 0.26248,-0.50138 0.74075,-1.31723 0.2992,-1.67122 -0.49534,-0.39711 -1.19525,0.43942 -1.75692,0.73538 -0.76245,0.40176 -1.40551,1.00845 -2.17178,1.40286 -1.07566,0.55365 -2.2859,1.86496 -3.37423,1.33667 -0.59595,-0.28928 -0.59191,-1.24245 -0.56791,-1.90446 0.049,-1.35216 0.94091,-2.53748 1.43867,-3.79563 1.17518,-2.97039 2.76037,-6.64503 3.65378,-8.85935 0.94757,-0.45525 1.8622,-0.98004 2.72541,-1.57717 1.04132,-0.72031 2.93994,-2.405338 2.93994,-2.405338 0,0 -1.76639,0.314347 -2.65915,0.387037 -0.52225,0.0425 -1.482,0.0303 -1.57166,0.0282 0.41137,-1.027974 0.86025,-2.281685 1.29103,-3.422269 1.00111,-2.650632 2.08412,-5.271672 3.00638,-7.950772 0.34168,-0.99256 1.3653,-2.04942 0.93534,-3.007051 -0.0747,-0.16647 -0.31632,-0.218859 -0.49866,-0.22582 z"
       id="path981-0"
       inkscape:connector-curvature="0"
       sodipodi:nodetypes="aaaacaaaacaaaaaaaaaaacacacaaaa" />
  </g>
  <g
     inkscape:groupmode="layer"
     id="layer5"
     inkscape:label="Голова (тень)"
     transform="translate(-0.49740632,-62.513566)" />
  <g
     inkscape:groupmode="layer"
     id="layer2"
     inkscape:label="Рисованная надпись"
     style="display:inline"
     transform="translate(-0.49740632,-62.513566)">
    <path
       inkscape:connector-curvature="0"
       style="fill:#e37900;fill-opacity:1;fill-rule:evenodd;stroke:#ab5b01;stroke-width:1.06500006;stroke-linecap:butt;stroke-linejoin:miter;stroke-miterlimit:4;stroke-dasharray:none;stroke-opacity:1"
       d="m 59.59459,102.54753 c -1.831007,1.26456 -3.453791,2.95986 -4.519178,4.91348 -1.311267,2.4045 -2.69755,5.28459 -2.071709,7.95093 0.674598,2.87406 2.988238,5.8241 5.813081,6.68177 3.820613,1.16 8.357519,-0.75501 11.559503,-3.14038 3.251298,-2.4221 6.04563,-6.29646 6.414596,-10.33396 0.237105,-2.59457 -0.878822,-5.57449 -2.850177,-7.27796 -1.86134,-1.608393 -4.736735,-1.855203 -7.189438,-1.666053 -2.562895,0.19765 -5.041575,1.411413 -7.156678,2.872173 z m 4.515707,1.03973 c 0.942162,-0.23216 2.021432,-0.057 2.885539,0.38441 1.170377,0.59792 2.145309,1.676 2.712275,2.86169 0.866621,1.81234 1.329158,4.03457 0.802018,5.97306 -0.519149,1.90911 -1.903928,3.76134 -3.660093,4.67243 -1.192237,0.61853 -2.780964,0.71311 -4.024192,0.20479 -1.40058,-0.57266 -2.499982,-1.94053 -3.073199,-3.34088 -0.506532,-1.23744 -0.336981,-2.68748 -0.133842,-4.00906 0.255148,-1.65993 0.660562,-3.41231 1.67262,-4.75253 0.693575,-0.91847 1.701374,-1.71854 2.818874,-1.99391 z"
       id="path841"
       sodipodi:nodetypes="aaaaaaaaaaaaaaaaaaa" />
    <path
       style="fill:#e37900;fill-opacity:1;fill-rule:evenodd;stroke:#ab5b01;stroke-width:1.06500006;stroke-linecap:butt;stroke-linejoin:miter;stroke-miterlimit:4;stroke-dasharray:none;stroke-opacity:1"
       d="m 14.57726,93.869156 6.614921,-3.608144 c 0,0 2.458166,-5.60669 4.81085,-7.34991 2.106648,-1.56092 4.974871,-2.69617 7.550365,-2.20498 1.995593,0.3806 3.998832,1.87956 4.810852,3.74178 1.224292,2.80769 0.04148,6.20934 -0.801809,9.15398 -1.609748,5.621004 -5.304363,10.421708 -7.951269,15.635248 -1.650356,3.25066 -3.49272,6.41125 -4.944486,9.75533 -0.594846,1.3702 -1.336346,3.60814 -1.5368,4.2095 -0.200451,0.60135 7.283095,-2.93997 7.283095,-2.93997 0,0 1.441556,-3.29908 2.405425,-4.81085 3.502503,-5.49346 12.160763,-15.30118 12.160763,-15.30118 l -7.416728,23.8538 6.949008,-2.53905 c 0,0 3.752739,-9.69644 6.147197,-14.29893 4.20487,-8.082364 8.543056,-16.245138 14.365737,-23.252418 0.867402,-1.04387 1.670435,-2.54259 3.013499,-2.73812 0.608994,-0.0887 1.298352,0.30519 1.663718,0.80041 0.802254,1.08738 0.559373,2.6584 0.601359,4.00905 0.01598,0.51395 -0.133636,1.5368 -0.133636,1.5368 l 6.614922,-3.34087 c 0,0 0.354693,-2.33676 0.133633,-3.47451 -0.321335,-1.65385 -0.614596,-3.76401 -2.071338,-4.6104 -1.006029,-0.58452 -2.379351,-0.0588 -3.474503,0.33409 -3.413067,1.22458 -6.363131,3.61303 -9.020347,6.08038 -3.033349,2.81661 -5.311475,6.36335 -7.684,9.75534 -1.335583,1.909484 -3.674954,5.94673 -3.674954,5.94673 0,0 2.385912,-3.864129 1.524639,-5.59447 -0.187591,-0.37688 -0.753672,-0.51347 -1.172374,-0.46968 -3.098493,0.32404 -5.416417,3.153225 -7.768997,5.195526 -2.596561,2.254105 -6.88219,7.683992 -6.88219,7.683992 0,0 3.868587,-5.710714 5.144939,-8.886696 1.820957,-4.531142 4.943148,-9.574812 3.474503,-14.232092 -0.802151,-2.54374 -3.445305,-4.5588 -6.013564,-5.27858 -3.222633,-0.90318 -6.847857,0.33986 -9.888971,1.73726 -4.687654,2.15398 -8.733366,5.79716 -11.960312,9.82215 -1.327109,1.65531 -2.873147,5.679484 -2.873147,5.679484 z"
       id="path839"
       inkscape:connector-curvature="0"
       sodipodi:nodetypes="ccaaaaaascacccaaaaaccaaaaacaaacaaaaac" />
    <path
       style="opacity:1;vector-effect:none;fill:#e37900;fill-opacity:1;fill-rule:evenodd;stroke:#ab5b01;stroke-width:1.06500006;stroke-linecap:butt;stroke-linejoin:miter;stroke-miterlimit:4;stroke-dasharray:none;stroke-dashoffset:0;stroke-opacity:1"
       d="m 69.277179,124.03302 c 0,0 3.938044,-2.13301 5.286681,-3.84438 4.065678,-5.15916 5.355231,-12.01152 7.542256,-18.20536 2.187541,-6.195302 3.45707,-12.685642 5.562548,-18.909322 0.151938,-0.44912 0.23679,-0.94014 0.509483,-1.32799 0.248513,-0.35347 0.620501,-0.60936 0.981717,-0.84647 1.559938,-1.02398 5.040198,-2.43593 5.040198,-2.43593 0,0 -3.33132,13.5924 -5.479024,20.24566 -0.56296,1.743962 -1.937705,5.144942 -1.937705,5.144942 0,0 5.293949,-4.363366 7.650589,-2.97337 1.0744,0.63369 0.66187,2.4714 0.50113,3.70836 -0.43492,3.347 -2.99171,6.09704 -3.87541,9.35444 -0.34143,1.25854 -1.61051,3.13868 -0.53453,3.8754 1.89207,1.2955 5.14493,-3.27405 6.01356,-3.34087 0.86863,-0.0668 -0.62753,2.05066 -1.33635,2.80634 -2.28508,2.43615 -5.42494,4.59492 -8.753076,4.87766 -0.690348,0.0587 -1.600123,-0.0991 -1.960287,-0.69098 -0.950351,-1.56173 0.285545,-3.66573 0.757576,-5.4319 0.714553,-2.67359 2.528838,-4.99239 3.108339,-7.69847 0.108364,-0.50603 0.311238,-1.45847 0.05926,-1.55137 -0.213773,-0.0788 -0.720703,0.6595 -1.030136,1.03535 -3.70271,4.49752 -5.264112,10.81012 -9.791241,14.47657 -1.461728,1.18383 -3.36399,1.87743 -5.229122,2.12113 -1.028235,0.13435 -3.086454,-0.38944 -3.086454,-0.38944 z"
       id="path899"
       inkscape:connector-curvature="0"
       sodipodi:nodetypes="caaaaacacaaaacaaaaasaaac" />
    <path
       style="opacity:1;vector-effect:none;fill:#e37900;fill-opacity:1;fill-rule:evenodd;stroke:#ab5b01;stroke-width:1.06500006;stroke-linecap:butt;stroke-linejoin:miter;stroke-miterlimit:4;stroke-dasharray:none;stroke-dashoffset:0;stroke-opacity:1"
       d="m 117.14828,77.438404 c -2.73952,0.93544 -5.37332,2.50229 -7.14947,4.74403 -1.2364,1.56051 -2.05835,4.29589 -2.90599,6.51885 -1.18659,3.11187 -2.02162,6.34666 -3.04075,9.51732 -1.48288,4.613456 -3.70136,9.963876 -4.990387,15.108686 -0.71314,2.8463 -3.00984,6.15312 -1.50642,8.67298 0.38568,0.64644 1.39562,0.81802 2.14152,0.71669 3.516217,-0.4777 6.598017,-3.18903 8.827987,-5.94933 1.07085,-1.32553 1.41584,-2.83959 1.90213,-4.74506 -1.04173,0.3052 -1.0582,0.33586 -1.56398,0.56177 -1.05014,0.46906 -2.12734,0.93456 -3.03573,1.63998 -1.02446,0.79556 -2.63969,2.85901 -2.63969,2.85901 0,0 6.3436,-19.666536 6.94495,-21.136516 0.60136,-1.46998 2.80489,-8.61961 4.47677,-12.82894 0.76548,-1.92728 2.53906,-5.67947 2.53906,-5.67947 z"
       id="path903"
       inkscape:connector-curvature="0"
       sodipodi:nodetypes="csasaaaacaaccac" />
    <path
       style="opacity:1;vector-effect:none;fill:#ff9c2b;fill-opacity:1;fill-rule:evenodd;stroke:#be711a;stroke-width:0.96499997;stroke-linecap:butt;stroke-linejoin:miter;stroke-miterlimit:4;stroke-dasharray:none;stroke-dashoffset:0;stroke-opacity:1"
       d="m 124.88332,81.100001 c 1.64663,-1.6488 3.65724,-3.24136 5.94676,-3.67496 3.93035,-0.74435 8.46975,-0.0643 11.80849,2.13898 1.47094,0.9707 2.86465,2.65099 2.91229,4.41272 0.0161,0.59528 -0.46325,1.13944 -0.90203,1.54204 -1.00058,0.91808 -2.33904,1.5334 -3.67999,1.74753 -0.54534,0.0871 -1.20769,0.12998 -1.64346,-0.20925 -1.08174,-0.8421 -0.46274,-2.93636 -1.50437,-3.82759 -2.09145,-1.78947 -5.68178,-3.1812 -8.06001,-1.79541 -3.62815,2.11411 -4.50644,7.93111 -3.67971,12.04809 0.46257,2.30351 2.47906,4.228164 4.50167,5.423668 1.35128,0.798714 3.33588,-0.008 4.62464,0.887624 0.93131,0.647567 1.64278,1.781787 1.76492,2.909507 0.57218,5.28315 -1.57287,11.16236 -5.15836,15.08452 -3.36928,3.68564 -8.78726,7.07462 -13.68414,6.09659 -3.38969,-0.67701 -7.04671,-4.07921 -7.12455,-7.53497 -0.0473,-2.09902 2.35425,-3.62636 4.11697,-4.76696 0.82714,-0.53521 2.0495,-1.44426 2.83203,-0.8457 1.68513,1.28898 -1.27406,4.55636 -0.1613,6.36271 1.04032,1.68876 3.40869,2.75491 5.3806,2.54103 2.34949,-0.25482 4.28162,-2.37888 5.61267,-4.33166 2.00073,-2.93528 4.07,-6.85306 2.97635,-10.23281 -0.2958,-0.91412 -1.37183,-1.44037 -2.27379,-1.77139 -1.50674,-0.55298 -3.32339,0.40245 -4.81085,-0.20047 -1.79816,-0.72886 -3.42369,-2.16682 -4.34313,-3.875404 -1.38665,-2.576769 -1.86103,-5.820485 -1.26953,-8.686265 0.74729,-3.62056 3.20547,-6.82636 5.81783,-9.44217 z"
       id="path905"
       inkscape:connector-curvature="0"
       sodipodi:nodetypes="aaaaaaaaaaaaaaaaaaaaaaaaaaa" />
    <path
       inkscape:connector-curvature="0"
       style="display:inline;fill:#ff9c2b;fill-opacity:1;fill-rule:evenodd;stroke:#be711a;stroke-width:0.96499997;stroke-linecap:butt;stroke-linejoin:miter;stroke-miterlimit:4;stroke-dasharray:none;stroke-opacity:1"
       d="m 145.50304,102.02069 c -1.83101,1.26456 -3.45379,2.95986 -4.51918,4.91348 -1.31127,2.4045 -2.69755,5.28459 -2.07171,7.95093 0.6746,2.87406 2.98824,5.8241 5.81308,6.68177 3.82062,1.16 8.35752,-0.75501 11.55951,-3.14038 3.25129,-2.4221 6.04563,-6.29646 6.41459,-10.33396 0.23711,-2.59457 -0.87882,-5.57449 -2.85018,-7.27796 -1.86134,-1.608393 -4.73673,-1.855203 -7.18943,-1.666053 -2.5629,0.19765 -5.04158,1.411413 -7.15668,2.872173 z m 4.51571,1.03973 c 0.94216,-0.23216 2.02143,-0.057 2.88553,0.38441 1.17038,0.59792 2.14531,1.676 2.71228,2.86169 0.86662,1.81234 1.32916,4.03457 0.80202,5.97306 -0.51915,1.90911 -1.90393,3.76134 -3.6601,4.67243 -1.19223,0.61853 -2.78096,0.71311 -4.02419,0.20479 -1.40058,-0.57266 -2.49998,-1.94053 -3.0732,-3.34088 -0.50653,-1.23744 -0.33698,-2.68748 -0.13384,-4.00906 0.25515,-1.65993 0.66056,-3.41231 1.67262,-4.75253 0.69358,-0.91847 1.70138,-1.71854 2.81888,-1.99391 z"
       id="path841-3"
       sodipodi:nodetypes="aaaaaaaaaaaaaaaaaaa" />
    <path
       style="display:inline;opacity:1;vector-effect:none;fill:#000000;fill-opacity:1;fill-rule:evenodd;stroke:#ffffff;stroke-width:0.3;stroke-linecap:butt;stroke-linejoin:miter;stroke-miterlimit:4;stroke-dasharray:none;stroke-dashoffset:0;stroke-opacity:1"
       d="m 182.47157,81.257391 c -2.22743,0.385958 -4.28533,1.706599 -5.97483,3.20859 -1.55106,1.378913 -2.62327,3.254528 -3.56774,5.10254 -0.96131,1.880946 -1.63645,4.463987 -2.08192,5.985337 -0.62065,-0.05713 -1.82385,-0.116984 -2.62555,-0.50652 -0.28107,-0.136567 -0.40371,-0.544894 -0.70848,-0.61392 -0.54957,-0.124469 -1.12835,0.191649 -1.62987,0.44855 -1.57509,0.806835 -3.91357,1.57515 -4.13412,3.331066 -0.01,0.07814 0.0766,0.14463 0.1416,0.18913 0.43186,0.295923 1.00324,0.301831 1.51205,0.425303 2.13594,0.518325 4.8684,1.134463 6.45979,1.322533 -0.58434,3.0866 -1.13835,11.52812 -4.0286,16.33362 -2.88581,4.79812 -7.4002,8.93248 -12.52082,11.19724 -9.78849,4.32927 -21.28434,4.32875 -31.93862,3.30729 -7.2408,-0.6942 -13.61557,-6.6285 -20.88348,-6.33088 -6.76752,0.27713 -13.469614,3.41519 -18.898585,7.46518 -3.272744,2.44146 -7.559744,9.63817 -7.559744,9.63817 0,0 5.518433,-3.22375 8.575185,-4.00286 5.4095,-1.37878 11.133505,-1.1604 16.714747,-1.04438 7.103927,0.14767 14.127907,2.88675 21.201287,2.21227 13.62911,-1.29959 27.35367,-5.23495 39.30922,-11.90625 4.11165,-2.29433 8.16274,-5.31638 10.5837,-9.35476 3.03558,-5.06359 3.22681,-12.61487 4.09179,-17.2322 1.24045,-0.10405 2.80448,-0.42863 4.08042,-1.007123 1.67919,-0.761328 4.53564,-3.165699 4.53564,-3.165699 0,0 -2.03853,0.382756 -3.07113,0.4253 -1.58712,0.06539 -3.56374,-0.129583 -4.75812,-0.263165 0.68696,-2.435172 0.93248,-4.12954 1.75517,-6.067615 0.4824,-1.136442 1.06487,-2.254525 1.84448,-3.211829 0.20581,-0.252723 0.45327,-0.817908 0.73174,-0.64854 0.6794,0.41323 -0.58246,1.517831 -0.58394,2.31303 -5e-4,0.26429 -0.048,0.657058 0.1912,0.76947 1.24916,0.587065 2.66615,-0.91766 3.73104,-1.79576 1.05001,-0.865835 2.35917,-1.915613 2.43912,-3.27422 0.0695,-1.180418 -0.79427,-2.40713 -1.77094,-3.07371 -0.32346,-0.220758 -0.86486,-0.430619 -1.16169,-0.17519 0,10e-7 0,2e-6 0,2e-6 z"
       id="path924"
       inkscape:connector-curvature="0"
       sodipodi:nodetypes="caacaaaacacaaaaacaaaaacacacaaaaaaaaac" />
    <path
       style="opacity:1;vector-effect:none;fill:url(#linearGradient979);fill-opacity:1;fill-rule:evenodd;stroke:none;stroke-width:0.30000001;stroke-linecap:butt;stroke-linejoin:miter;stroke-miterlimit:4;stroke-dasharray:none;stroke-dashoffset:0;stroke-opacity:1"
       d="m 77.773344,138.47629 c 0,0 3.442617,-4.6712 5.80328,-6.25953 4.805192,-3.2331 10.465574,-5.92145 16.252979,-6.14212 6.715907,-0.25608 12.769547,4.29723 19.348517,5.67063 2.71798,0.5674 5.49188,0.8794 8.26314,1.05096 3.4673,0.21465 6.96353,0.30011 10.42178,-0.0297 3.25351,-0.31028 6.47717,-0.97708 9.6333,-1.82584 2.78534,-0.74905 8.16302,-2.8702 8.16302,-2.8702 0,0 -8.52437,3.84388 -12.97041,5.2563 -4.87588,1.54897 -9.88947,2.70611 -14.94327,3.50153 -4.3329,0.68196 -8.73751,1.36392 -13.11446,1.07848 -2.37837,-0.1551 -4.63651,-1.1285 -6.98975,-1.50659 -3.4457,-0.55361 -6.92243,-1.00003 -10.410557,-1.11099 -4.1704,-0.13266 -8.419806,-0.30923 -12.506117,0.53453 -2.428877,0.50152 -6.951452,2.65255 -6.951452,2.65255 z"
       id="path971"
       inkscape:connector-curvature="0"
       sodipodi:nodetypes="caaaaaacaaaaaacc" />
    <path
       style="opacity:1;vector-effect:none;fill:#ff9c2b;fill-opacity:1;fill-rule:evenodd;stroke:#be711a;stroke-width:0.96499997;stroke-linecap:butt;stroke-linejoin:miter;stroke-miterlimit:4;stroke-dasharray:none;stroke-dashoffset:0;stroke-opacity:1"
       d="m 197.76781,83.775917 c -0.6757,-0.0258 -1.29889,0.39646 -1.90635,0.69349 -1.01592,0.49676 -2.11167,0.96801 -2.87321,1.80403 -1.45767,1.60023 -2.01983,3.83145 -2.92643,5.79706 -0.85532,1.85441 -1.6037,3.84485 -2.36782,5.650396 -0.63847,-0.0216 -1.80003,0.12915 -2.62893,0.450723 -0.99728,0.3869 -1.90366,1.01976 -2.70113,1.732707 -0.68459,0.612037 -2.07387,1.284167 -1.73684,2.138367 0.23926,0.60641 1.28996,0.1906 1.93735,0.26717 1.03726,0.12268 2.32531,0.10075 3.11831,0.30789 -0.69603,1.74099 -2.09612,4.93743 -3.05124,7.4429 -0.93563,2.45436 -2.61474,4.80391 -2.62309,7.43055 -0.004,1.24415 0.16235,2.87235 1.22008,3.52743 2.13835,1.32436 5.2251,0.13884 7.48326,-0.96893 2.26668,-1.11194 4.19561,-3.10815 5.3666,-5.34489 0.26249,-0.50138 0.74076,-1.31723 0.29921,-1.67122 -0.49534,-0.39711 -1.19525,0.43942 -1.75692,0.73538 -0.76245,0.40176 -1.40551,1.00845 -2.17178,1.40286 -1.07566,0.55365 -2.2859,1.86496 -3.37424,1.33667 -0.59594,-0.28928 -0.59191,-1.24245 -0.5679,-1.90446 0.049,-1.35216 0.94091,-2.53748 1.43867,-3.79563 1.17518,-2.97039 2.76037,-6.64503 3.65378,-8.85935 0.94757,-0.45525 1.86219,-0.98004 2.72541,-1.57717 1.04132,-0.720307 2.93993,-2.405327 2.93993,-2.405327 0,0 -1.76638,0.314343 -2.65915,0.387033 -0.52224,0.0425 -1.482,0.0303 -1.57165,0.0282 0.41137,-1.027973 0.86025,-2.281679 1.29103,-3.422269 1.00111,-2.65064 2.08412,-5.27168 3.00638,-7.95078 0.34168,-0.99256 1.3653,-2.04942 0.93534,-3.00705 -0.0747,-0.16647 -0.31633,-0.21886 -0.49867,-0.22582 z"
       id="path981"
       inkscape:connector-curvature="0"
       sodipodi:nodetypes="aaaacaaaacaaaaaaaaaaacacacaaaa" />
  </g>
  <g
     inkscape:groupmode="layer"
     id="layer3"
     inkscape:label="Голова"
     style="display:inline"
     transform="translate(-0.49740632,-62.513566)" />
</svg>
