<?xml version="1.0" encoding="UTF-8" standalone="no"?>
<!-- Created with Inkscape (http://www.inkscape.org/) -->

<svg
   width="93.530312mm"
   height="93.373657mm"
   viewBox="0 0 331.40661 330.85153"
   id="svg2"
   version="1.1"
   inkscape:version="1.1.2 (0a00cf5339, 2022-02-04)"
   sodipodi:docname="Moondust-Translator.svg"
   inkscape:export-filename="/home/vitaly/_git_repos/PGE-Project/Maintainer/_resources/icon/maintainer16.png"
   inkscape:export-xdpi="4.3524055"
   inkscape:export-ydpi="4.3524055"
   xmlns:inkscape="http://www.inkscape.org/namespaces/inkscape"
   xmlns:sodipodi="http://sodipodi.sourceforge.net/DTD/sodipodi-0.dtd"
   xmlns="http://www.w3.org/2000/svg"
   xmlns:svg="http://www.w3.org/2000/svg"
   xmlns:rdf="http://www.w3.org/1999/02/22-rdf-syntax-ns#"
   xmlns:cc="http://creativecommons.org/ns#"
   xmlns:dc="http://purl.org/dc/elements/1.1/">
  <defs
     id="defs4" />
  <sodipodi:namedview
     id="base"
     pagecolor="#ffffff"
     bordercolor="#666666"
     borderopacity="1.0"
     inkscape:pageopacity="0.0"
     inkscape:pageshadow="2"
     inkscape:zoom="0.7"
     inkscape:cx="-82.142857"
     inkscape:cy="332.85714"
     inkscape:document-units="px"
     inkscape:current-layer="layer1"
     showgrid="false"
     inkscape:window-width="1920"
     inkscape:window-height="992"
     inkscape:window-x="0"
     inkscape:window-y="30"
     inkscape:window-maximized="1"
     fit-margin-top="2"
     fit-margin-right="2"
     fit-margin-bottom="2"
     fit-margin-left="2"
     inkscape:pagecheckerboard="0" />
  <metadata
     id="metadata7">
    <rdf:RDF>
      <cc:Work
         rdf:about="">
        <dc:format>image/svg+xml</dc:format>
        <dc:type
           rdf:resource="http://purl.org/dc/dcmitype/StillImage" />
      </cc:Work>
    </rdf:RDF>
  </metadata>
  <g
     inkscape:label="Layer 1"
     inkscape:groupmode="layer"
     id="layer1"
     transform="translate(-57.096791,-117.96664)"
     style="display:inline">
    <path
       style="fill:#ffaaaa;stroke:#550000;stroke-width:2.7;stroke-miterlimit:4;stroke-dasharray:none;stroke-opacity:1"
       d="M 205.57143,439.87837 C 160.38756,434.15898 122.56586,412.52417 96.279658,377.36116 61.908058,331.38234 55.888501,266.91888 81.102496,214.82889 94.151795,187.87013 115.50532,164.57146 141.81118,148.5901 c 12.79128,-7.77098 11.91435,-4.77742 -2.973,10.14882 l -11.73325,11.7639 10.23325,10.26819 c 5.62829,5.64751 10.23325,10.7462 10.23325,11.33043 0,0.58423 -2.00913,4.5878 -4.46473,8.89683 -4.73974,8.31715 -9.50362,20.48875 -12.16324,31.07674 l -1.61518,6.43005 h -13.87842 -13.87843 v 23.97327 23.97326 l 14.53754,0.27674 14.53753,0.27673 3.42212,10.20362 c 3.68691,10.99316 6.83856,17.76029 12.13958,26.0658 1.84978,2.89818 3.36323,5.81427 3.36323,6.48021 0,0.66594 -3.93196,5.16107 -8.73769,9.98917 l -8.73769,8.77836 16.72966,16.72966 16.72967,16.72966 9.27681,-9.23824 c 5.10225,-5.08103 9.95809,-9.23824 10.79075,-9.23824 0.83267,0 4.42421,1.53604 7.98121,3.41341 6.28632,3.31791 20.10072,8.41202 28.71728,10.58961 l 4.25,1.07407 v 11.46145 11.46146 h 24 24 v -11.88214 -11.88215 l 8.75,-2.71622 c 10.5091,-3.2623 20.82388,-7.90606 28.57613,-12.86512 3.14199,-2.0099 6.49881,-3.65437 7.4596,-3.65437 2.33784,0 24.21427,22.0266 24.21427,24.38048 0,1.01706 -3.4875,5.44864 -7.75,9.84796 -22.44909,23.16969 -50.13042,38.27949 -82.25,44.896 -9.28998,1.9137 -39.47532,3.32793 -48,2.24887 z M 360.29797,330.73294 c -4.2496,-4.27467 -7.72654,-8.2269 -7.72654,-8.78273 0,-0.55583 1.55749,-3.9437 3.46108,-7.52861 3.44698,-6.49146 10.53892,-26.20369 10.53892,-29.29319 0,-1.33511 1.18113,-1.62335 6.65197,-1.62335 h 6.65196 l -0.62794,10.26287 c -1.02736,16.79096 -7.33916,44.73713 -10.10412,44.73713 -0.61533,0 -4.59573,-3.49746 -8.84533,-7.77212 z M 237.57143,299.19517 c -12.09018,-3.50027 -20.19674,-10.26252 -25.73412,-21.46663 -3.63868,-7.36239 -3.76588,-7.97791 -3.76588,-18.22348 0,-10.22991 0.13166,-10.87013 3.73472,-18.16042 4.49813,-9.10134 10.28875,-14.77057 19.58567,-19.17506 6.17967,-2.92767 7.46549,-3.16452 17.17961,-3.16452 9.71412,0 10.99994,0.23685 17.17961,3.16452 9.29611,4.40411 15.08747,10.07377 19.58567,19.1741 3.56422,7.21079 3.73472,8.01468 3.73472,17.60856 0,7.49187 -0.49513,11.38745 -1.94359,15.29182 -3.7887,10.21254 -13.23235,19.80095 -23.27059,23.62729 -6.17076,2.35215 -20.2796,3.0627 -26.28582,1.32382 z m 129,-65.31346 c 0,-0.89284 -1.575,-6.33017 -3.5,-12.08295 -4.04244,-12.08066 -3.89356,-11.2937 -2.13656,-11.2937 1.31514,0 4.22801,5.70826 8.56626,16.78702 2.71015,6.92104 2.64256,8.21298 -0.4297,8.21298 -1.63998,0 -2.5,-0.55844 -2.5,-1.62335 z M 172.30058,148.73527 c -4.80103,-4.82337 -8.72915,-9.29104 -8.72915,-9.92815 0,-4.01919 37.07073,-12.26792 55.25,-12.29386 l 5.75,-0.008 v 7.5 c 0,6.25328 -0.26985,7.5 -1.62335,7.5 -3.53555,0 -23.33984,7.35129 -31.11715,11.5506 -4.53227,2.44717 -8.81666,4.4494 -9.52085,4.4494 -0.70419,0 -5.20847,-3.9464 -10.0095,-8.76979 z m 121.77085,-0.81898 c -4.4,-1.8405 -11.0375,-4.13562 -14.75,-5.10028 -6.29293,-1.63516 -6.75,-1.94207 -6.75,-4.53244 0,-2.02447 0.49598,-2.77851 1.82759,-2.77851 4.72419,0 30.17241,12.39213 30.17241,14.6926 0,1.83084 -1.39228,1.52834 -10.5,-2.28137 z"
       id="path4147"
       inkscape:connector-curvature="0"
       sodipodi:nodetypes="ssssscsssscccccccsssscccsssscccccccsssssssssssscssssssssssssssssssssscsccssssccssssss" />
  </g>
  <g
     inkscape:groupmode="layer"
     id="layer2"
     inkscape:label="Перо"
     style="display:inline">
    <g
       id="g6"
       transform="matrix(0.74391806,0,0,0.74391806,57.161719,54.480707)"
       style="fill:#ffdd55;stroke:#806600;stroke-width:6.17335;stroke-miterlimit:4;stroke-dasharray:none">
      <g
         id="g4"
         style="fill:#ffdd55;stroke:#806600;stroke-width:6.17335;stroke-miterlimit:4;stroke-dasharray:none">
        <path
           d="m 358.872,0.841 c -3.196,-1.538 -7.014,-0.931 -9.572,1.526 -19.515,18.728 -53.141,46.415 -102.511,71.961 -2.159,1.118 -3.737,3.106 -4.333,5.463 -4.028,15.908 -11.933,33.271 -23.492,51.607 l -4.705,7.462 8.772,-38.205 c 0.715,-3.115 -0.378,-6.368 -2.828,-8.42 -2.451,-2.052 -5.846,-2.556 -8.786,-1.303 l -1.015,0.428 C 110.79,133.291 81.352,198.24 72.67,233.22 c -3.013,12.141 -4.516,24.163 -4.465,35.738 0.02,4.466 0.272,8.722 0.75,12.705 l -66.39,67.703 c -3.211,3.273 -3.246,8.505 -0.078,11.822 1.667,1.745 3.904,2.629 6.149,2.629 2.02,0 4.045,-0.717 5.664,-2.164 L 196.728,197.802 c 0.896,0.059 -103.874,109.806 -102.925,109.806 14.22,0 33.863,-6.555 56.804,-18.95 30.935,-16.717 65.508,-42.37 99.979,-74.185 2.832,-2.612 3.551,-6.805 1.753,-10.213 -1.798,-3.407 -5.662,-5.181 -9.42,-4.315 l -21.363,4.904 7.465,-4.706 c 20.835,-13.136 40.313,-21.511 57.891,-24.897 1.901,-0.367 3.622,-1.372 4.875,-2.849 41.348,-48.75 58.853,-96.919 66.256,-128.743 2.69,-11.567 4.579,-23.134 5.607,-34.38 0.322,-3.532 -1.581,-6.895 -4.778,-8.433 z"
           id="path2"
           style="fill:#ffdd55;stroke:#806600;stroke-width:6.17335;stroke-miterlimit:4;stroke-dasharray:none" />
      </g>
    </g>
  </g>
  <g
     inkscape:groupmode="layer"
     id="layer3"
     inkscape:label="Буквы">
    <text
       xml:space="preserve"
       style="font-style:normal;font-variant:normal;font-weight:bold;font-stretch:normal;font-size:187.5px;line-height:125%;font-family:sans-serif;-inkscape-font-specification:'sans-serif Bold';letter-spacing:0px;word-spacing:0px;display:inline;fill:#2ad4ff;fill-opacity:1;stroke:#004455;stroke-width:4.125;stroke-linecap:butt;stroke-linejoin:miter;stroke-miterlimit:4;stroke-dasharray:none;stroke-opacity:1"
       x="33.294521"
       y="152.2328"
       id="text2408"><tspan
         sodipodi:role="line"
         id="tspan2406"
         style="font-style:normal;font-variant:normal;font-weight:normal;font-stretch:normal;font-size:187.5px;font-family:'Noto Serif';-inkscape-font-specification:'Noto Serif';fill:#2ad4ff;stroke:#004455;stroke-width:4.125;stroke-miterlimit:4;stroke-dasharray:none"
         x="33.294521"
         y="152.2328">A</tspan></text>
    <text
       xml:space="preserve"
       style="font-style:normal;font-variant:normal;font-weight:bold;font-stretch:normal;font-size:187.5px;line-height:125%;font-family:sans-serif;-inkscape-font-specification:'sans-serif Bold';letter-spacing:0px;word-spacing:0px;display:inline;fill:#99ff55;fill-opacity:1;stroke:#225500;stroke-width:4.125;stroke-linecap:butt;stroke-linejoin:miter;stroke-miterlimit:4;stroke-dasharray:none;stroke-opacity:1"
       x="151.17543"
       y="302.13544"
       id="text31750"><tspan
         sodipodi:role="line"
         id="tspan31748"
         style="font-size:187.5px;fill:#99ff55;stroke:#225500;stroke-width:4.125;stroke-miterlimit:4;stroke-dasharray:none"
         x="151.17543"
         y="302.13544">あ</tspan></text>
  </g>
</svg>
